<?xml version="1.0" standalone="no"?>
<!DOCTYPE svg PUBLIC "-//W3C//DTD SVG 1.1//EN" "http://www.w3.org/Graphics/SVG/1.1/DTD/svg11.dtd" >
<svg xmlns="http://www.w3.org/2000/svg" width="100%" height="100%">
<metadata>
Created by FontXChange 20110222 at Mon Jun 23 07:50:35 2014
 By Nanang MEA
Copyright (C) 2006  Barry Schwartz.

This font/program is free software; you can redistribute it and/or
modify it under the terms of the GNU General Public License as
published by the Free Software Foundation; either version 2 of the
License, or (at your option) any later version.

In the special case where you are embedding or similarly including the font in a document, the document with the font included in it need not be subject to the terms of the GNU General Public License.

This font/program is distributed in the hope that it will be useful,
but WITHOUT ANY WARRANTY; without even the implied warranty of
MERCHANTABILITY or FITNESS FOR A PARTICULAR PURPOSE.  See the GNU
General Public License for more details.

You should have received a copy of the GNU General Public License
along with this program; if not, write to the Free Software
Foundation, Inc., 59 Temple Place, Suite 330, Boston, MA 02111-1307
USA
</metadata>
<defs>
<font id="BonvenoCF-Light" horiz-adv-x="694" >
  <font-face 
    font-family="BonvenoCF"
    font-weight="200"
    font-stretch="normal"
    units-per-em="1000"
    panose-1="2 0 3 3 0 0 0 0 0 0"
    ascent="800"
    descent="-200"
    x-height="524"
    cap-height="728"
    bbox="-16 -288 1081 1032"
    underline-thickness="50"
    underline-position="-75"
    stemh="50"
    stemv="50"
    unicode-range="U+0020-F6DE"
  />
<missing-glyph horiz-adv-x="1000" 
 />
    <glyph glyph-name=".notdef" horiz-adv-x="1000" 
 />
    <glyph glyph-name="space" unicode=" " horiz-adv-x="400" 
 />
    <glyph glyph-name="exclam" unicode="!" horiz-adv-x="336" 
d="M188 166h-38l-8 562h54zM120 44c0 26 22 48 48 48s48 -22 48 -48s-22 -48 -48 -48s-48 22 -48 48z" />
    <glyph glyph-name="quotedbl" unicode="&#x22;" horiz-adv-x="321" 
d="M117 728l-10 -204h-47l-10 204h67zM271 728l-10 -204h-47l-10 204h67z" />
    <glyph glyph-name="numbersign" unicode="#" horiz-adv-x="606" 
d="M348 221l19 107h-109l-19 -107h109zM390 171l-24 -137l-49 9l22 128h-108l-24 -137l-50 9l23 128h-130v50h139l19 107h-130v50h138l24 137l50 -9l-23 -128h109l24 137l49 -9l-22 -128h130v-50h-139l-19 -107h130v-50h-139z" />
    <glyph glyph-name="dollar" unicode="$" horiz-adv-x="456" 
d="M248 -104h-50v125c-48 8 -109 41 -118 145l50 2c7 -79 53 -99 95 -99c69 0 101 57 101 97c0 45 -55 68 -109 80c-118 26 -129 87 -129 112c0 89 59 131 110 141v125h50v-123c74 -10 119 -69 122 -139l-50 -2c-1 39 -26 92 -94 92c-46 0 -88 -34 -88 -93
c0 -26 27 -51 89 -64c142 -31 149 -103 149 -129c0 -59 -41 -134 -128 -145v-125z" />
    <glyph glyph-name="percent" unicode="%" horiz-adv-x="579" 
d="M519 99c0 -74 -56 -107 -99 -107c-74 0 -107 56 -107 99c0 74 56 107 99 107c74 0 107 -56 107 -99zM363 92c0 -21 16 -50 56 -50c21 0 50 16 50 55c0 22 -16 51 -55 51c-22 0 -51 -16 -51 -56zM60 426c0 74 56 107 99 107c74 0 107 -56 107 -99c0 -75 -56 -107 -99 -107
c-74 0 -107 56 -107 99zM216 432c0 22 -16 51 -55 51c-22 0 -51 -17 -51 -56c0 -21 16 -50 56 -50c21 0 50 16 50 55zM145 11l244 524l46 -21l-245 -525z" />
    <glyph glyph-name="ampersand" unicode="&#x26;" horiz-adv-x="699" 
d="M546 224c0 -150 -118 -236 -230 -236c-149 0 -236 118 -236 230c0 106 59 180 135 215c-46 31 -73 84 -73 136c0 109 84 172 166 172c108 0 171 -84 171 -165h-50c0 58 -45 115 -121 115c-57 0 -116 -45 -116 -121c0 -57 45 -116 119 -116v-50c-95 0 -181 -74 -181 -185
c0 -90 70 -181 185 -181c90 0 181 70 181 186v180h-50v50h50v50h50v-50h133v-50h-133v-180z" />
    <glyph glyph-name="quotesingle" unicode="'" horiz-adv-x="167" 
d="M117 728l-10 -204h-47l-10 204h67z" />
    <glyph glyph-name="parenleft" unicode="(" horiz-adv-x="371" 
d="M339 -188l-36 -35c-133 135 -213 320 -213 518c0 210 83 394 216 526l35 -35c-123 -123 -201 -294 -201 -491c0 -185 74 -357 199 -483z" />
    <glyph glyph-name="parenright" unicode=")" horiz-adv-x="371" 
d="M32 -188c124 126 199 298 199 483c0 197 -78 368 -201 491l35 35c132 -132 216 -316 216 -526c0 -198 -80 -383 -214 -518z" />
    <glyph glyph-name="asterisk" unicode="*" horiz-adv-x="495" 
d="M217 567l-137 70l22 38l130 -81l-5 153h44l-8 -153l131 81l21 -39l-137 -69l137 -70l-21 -38l-131 81l8 -153h-44l5 152l-130 -81l-22 39z" />
    <glyph glyph-name="plus" unicode="+" horiz-adv-x="598" 
d="M274 498h50v-224h224v-50h-224v-224h-50v224h-224v50h224v224z" />
    <glyph glyph-name="comma" unicode="," horiz-adv-x="243" 
d="M124 141l60 -20l-82 -204l-42 15z" />
    <glyph glyph-name="hyphen" unicode="-" horiz-adv-x="355" 
d="M317 332l8 -49l-286 -51l-9 49z" />
    <glyph glyph-name="period" unicode="." horiz-adv-x="296" 
d="M100 44c0 26 22 48 48 48s48 -22 48 -48s-22 -48 -48 -48s-48 22 -48 48z" />
    <glyph glyph-name="slash" unicode="/" horiz-adv-x="449" 
d="M107 -147l-47 17l342 940l47 -17z" />
    <glyph glyph-name="zero" unicode="0" horiz-adv-x="675" 
d="M105 259c0 181 122 279 230 279c141 0 235 -131 235 -273c0 -181 -122 -279 -230 -279c-141 0 -235 131 -235 273zM520 265c0 115 -74 223 -185 223c-95 0 -180 -93 -180 -229c0 -115 73 -223 184 -223c96 0 181 93 181 229z" />
    <glyph glyph-name="one" unicode="1" horiz-adv-x="290" 
d="M170 524v-524h-50v524h50z" />
    <glyph glyph-name="two" unicode="2" horiz-adv-x="447" 
d="M50 488c31 33 75 50 117 50c108 0 168 -84 168 -162c0 -27 -5 -59 -23 -89l-134 -237h220v-50h-305l175 312c10 16 17 38 17 63c0 53 -41 113 -117 113c-29 0 -60 -12 -82 -36z" />
    <glyph glyph-name="three" unicode="3" horiz-adv-x="476" 
d="M326 378c0 -24 -6 -52 -20 -81c81 -50 130 -139 130 -233c0 -168 -132 -280 -274 -280c-53 0 -102 14 -142 37l25 43c33 -19 73 -30 117 -30c116 0 224 92 224 229c0 97 -62 187 -162 216c30 20 52 56 52 94c0 53 -42 113 -118 113c-28 0 -60 -12 -82 -36l-36 35
c32 33 75 51 117 51c106 0 169 -84 169 -158z" />
    <glyph glyph-name="four" unicode="4" horiz-adv-x="585" 
d="M412 414l-305 -364h305v364zM462 551v-501h73v-50h-73v-156h-50v156h-412z" />
    <glyph glyph-name="five" unicode="5" horiz-adv-x="598" 
d="M100 223l26 301h344v-50h-298l-14 -168c32 32 66 32 100 32c168 0 280 -132 280 -274c0 -168 -132 -280 -274 -280c-54 0 -102 14 -142 37l25 43c33 -19 72 -30 116 -30c117 0 225 92 225 229c0 117 -92 225 -229 225c-56 0 -114 -21 -159 -65z" />
    <glyph glyph-name="six" unicode="6" horiz-adv-x="571" 
d="M206 438c27 10 56 16 84 16c149 0 236 -118 236 -230c0 -149 -118 -236 -230 -236c-149 0 -236 118 -236 230c0 37 7 80 32 122l234 406l44 -25zM291 404c-90 0 -181 -70 -181 -185c0 -90 70 -181 185 -181c90 0 181 70 181 185c0 90 -70 181 -185 181z" />
    <glyph glyph-name="seven" unicode="7" horiz-adv-x="512" 
d="M512 524l-428 -741l-44 25l385 666h-395v50h482z" />
    <glyph glyph-name="eight" unicode="8" horiz-adv-x="606" 
d="M120 219c0 -90 70 -181 185 -181c90 0 181 70 181 185c0 89 -68 181 -182 181c-104 0 -184 -79 -184 -185zM70 218c0 154 121 215 161 216c-11 2 -97 34 -97 135c0 109 87 173 169 173c108 0 168 -86 168 -167c0 -53 -17 -78 -39 -105c-10 -11 -46 -33 -57 -36
c19 -1 77 -20 116 -74c29 -40 45 -89 45 -136c0 -149 -118 -236 -230 -236c-149 0 -236 118 -236 230zM303 454c58 0 118 45 118 120c0 58 -43 117 -118 117c-58 0 -119 -45 -119 -121c0 -54 41 -116 119 -116z" />
    <glyph glyph-name="nine" unicode="9" horiz-adv-x="571" 
d="M366 90c-28 -11 -57 -16 -85 -16c-149 0 -236 118 -236 230c0 148 118 236 230 236c149 0 236 -119 236 -230c0 -37 -7 -80 -31 -122l-235 -406l-43 24zM280 124c90 0 181 69 181 185c0 90 -70 181 -185 181c-90 0 -181 -70 -181 -186c0 -89 70 -180 185 -180z" />
    <glyph glyph-name="colon" unicode=":" horiz-adv-x="316" 
d="M110 44c0 26 22 48 48 48s48 -22 48 -48s-22 -48 -48 -48s-48 22 -48 48zM110 481c0 26 22 48 48 48s48 -22 48 -48c0 -27 -22 -48 -48 -48s-48 21 -48 48z" />
    <glyph glyph-name="semicolon" unicode=";" horiz-adv-x="346" 
d="M140 481c0 26 22 48 48 48c27 0 48 -22 48 -48c0 -27 -21 -48 -48 -48c-26 0 -48 21 -48 48zM174 141l60 -20l-82 -204l-42 15z" />
    <glyph glyph-name="less" unicode="&#x3c;" horiz-adv-x="588" 
d="M518 26l-25 -43l-463 267l462 267l25 -43l-387 -224z" />
    <glyph glyph-name="equal" unicode="=" horiz-adv-x="698" 
d="M598 298h-498v50h498v-50zM598 150h-498v50h498v-50z" />
    <glyph glyph-name="greater" unicode="&#x3e;" horiz-adv-x="588" 
d="M70 474l25 43l463 -266l-462 -268l-25 43l387 225z" />
    <glyph glyph-name="question" unicode="?" horiz-adv-x="468" 
d="M50 683c40 41 96 61 145 61c146 0 213 -113 213 -203c0 -68 -24 -119 -60 -154c-34 -34 -78 -52 -120 -58l-6 -161h-38l-8 213l54 -1c28 6 59 19 83 43c26 26 45 64 45 118c0 55 -36 134 -128 150c-11 2 -22 3 -35 3c-6 0 -12 0 -19 -1c-30 -4 -64 -19 -91 -46zM154 44
c0 26 22 48 48 48c27 0 48 -22 48 -48s-21 -48 -48 -48c-26 0 -48 22 -48 48z" />
    <glyph glyph-name="at" unicode="@" horiz-adv-x="798" 
d="M559 114c-58 0 -63 34 -63 64v16c-27 -40 -68 -63 -122 -63c-117 0 -196 93 -196 192c0 118 93 196 192 196c60 0 101 -24 126 -61v49h35s-2 -92 -2 -193v-89c0 -69 3 -76 30 -76c71 0 154 74 154 177c0 182 -142 313 -313 313s-310 -133 -310 -312
c0 -172 134 -311 313 -311c94 0 158 40 188 63l21 -28c-34 -25 -104 -70 -209 -70c-199 0 -348 155 -348 346c0 198 155 347 346 347c189 0 347 -146 347 -348c0 -114 -90 -212 -189 -212zM496 425c-28 35 -72 59 -126 59c-81 0 -157 -64 -157 -161c0 -81 64 -157 161 -157
c47 0 92 22 122 59v200z" />
    <glyph glyph-name="A" unicode="A" horiz-adv-x="791" 
d="M50 11l346 740l345 -740l-49 -23l-126 270h-341l-126 -270zM541 312l-146 312l-145 -312h291z" />
    <glyph glyph-name="B" unicode="B" horiz-adv-x="628" 
d="M391 402c31 -3 142 -66 142 -192c0 -131 -102 -210 -203 -210h-210v728h182c119 0 189 -93 189 -182c0 -64 -24 -94 -36 -107c-11 -11 -48 -34 -64 -37zM329 54c74 0 150 58 150 155c0 70 -51 149 -137 149h-168v-304h155zM174 412h155c56 10 108 59 108 133
c0 64 -52 129 -135 129h-128v-262z" />
    <glyph glyph-name="C" unicode="C" horiz-adv-x="806" 
d="M109 363c0 -175 140 -327 331 -327c85 0 168 34 230 94l38 -38c-71 -70 -167 -110 -267 -110c-228 0 -386 181 -386 380c0 228 181 386 380 386c112 0 208 -44 276 -113l-38 -38c-58 59 -140 97 -238 97c-174 0 -326 -140 -326 -331z" />
    <glyph glyph-name="D" unicode="D" horiz-adv-x="723" 
d="M302 728c202 0 366 -161 366 -363s-164 -365 -366 -365h-182v728h182zM302 674h-128v-620h128c172 0 311 139 311 311s-139 309 -311 309z" />
    <glyph glyph-name="E" unicode="E" horiz-adv-x="588" 
d="M394 412v-54h-220v-304h314v-54h-368v728h330v-54h-276v-262h220z" />
    <glyph glyph-name="F" unicode="F" horiz-adv-x="548" 
d="M120 728h368v-54h-314v-262h220v-54h-220v-358h-54v728z" />
    <glyph glyph-name="G" unicode="G" horiz-adv-x="806" 
d="M109 363c0 -175 140 -327 331 -327c78 0 155 29 214 80v142h-214v54h268v-220c-71 -70 -167 -110 -267 -110c-228 0 -386 181 -386 380c0 228 181 386 380 386c112 0 208 -44 276 -113l-38 -38c-58 59 -140 97 -238 97c-174 0 -326 -140 -326 -331z" />
    <glyph glyph-name="H" unicode="H" horiz-adv-x="734" 
d="M120 0v728h54v-316h386v316h54v-728h-54v358h-386v-358h-54z" />
    <glyph glyph-name="I" unicode="I" horiz-adv-x="294" 
d="M174 0h-54v728h54v-728z" />
    <glyph glyph-name="J" unicode="J" horiz-adv-x="585" 
d="M53 118c15 -74 78 -145 180 -145c85 0 178 65 178 181v574h54v-270c0 -238 1 -267 1 -297c0 -152 -118 -242 -232 -242c-132 0 -214 92 -234 190z" />
    <glyph glyph-name="K" unicode="K" horiz-adv-x="691" 
d="M266 386l365 -365l-38 -38l-403 403l356 356l38 -38zM174 0h-54v728h54v-728z" />
    <glyph glyph-name="L" unicode="L" horiz-adv-x="593" 
d="M120 0v728h54v-674h384v-54h-438z" />
    <glyph glyph-name="M" unicode="M" horiz-adv-x="953" 
d="M477 327l356 425v-752h-54v604l-302 -361l-303 361v-604h-54v752z" />
    <glyph glyph-name="N" unicode="N" horiz-adv-x="821" 
d="M120 752l527 -628v604h54v-752l-527 628v-604h-54v752z" />
    <glyph glyph-name="O" unicode="O" horiz-adv-x="876" 
d="M55 362c0 228 181 386 380 386c228 0 386 -181 386 -380c0 -228 -181 -386 -380 -386c-228 0 -386 181 -386 380zM767 365c0 180 -141 329 -332 329c-167 0 -326 -132 -326 -331c0 -167 132 -327 331 -327c168 0 327 132 327 329z" />
    <glyph glyph-name="P" unicode="P" horiz-adv-x="635" 
d="M174 0h-54v728h223c147 0 232 -119 232 -232c0 -144 -111 -238 -229 -238h-172v-258zM174 312h171c85 0 176 67 176 184c0 84 -64 178 -178 178h-169v-362z" />
    <glyph glyph-name="Q" unicode="Q" horiz-adv-x="901" 
d="M821 368c0 -98 -35 -199 -113 -276l109 -109l-38 -38l-112 112c-65 -48 -144 -75 -226 -75c-228 0 -386 181 -386 380c0 229 181 386 380 386c228 0 386 -181 386 -380zM440 36c167 0 327 132 327 329c0 180 -141 329 -332 329c-167 0 -326 -132 -326 -331
c0 -167 132 -327 331 -327z" />
    <glyph glyph-name="R" unicode="R" horiz-adv-x="660" 
d="M575 496c0 -126 -92 -229 -199 -229c-25 0 -57 6 -63 8l254 -255l-38 -38l-330 330h146c85 0 176 67 176 184c0 84 -64 178 -178 178h-169v-674h-54v728h223c147 0 232 -119 232 -232z" />
    <glyph glyph-name="S" unicode="S" horiz-adv-x="593" 
d="M518 205c0 -106 -86 -227 -237 -227c-76 0 -211 37 -226 230l54 3c12 -150 109 -179 173 -179c115 0 182 93 182 173c0 65 -30 107 -196 150c-93 25 -181 76 -181 187c0 144 116 199 197 199c123 0 200 -90 205 -199l-54 -3c-4 82 -60 148 -150 148
c-65 0 -144 -43 -144 -143c0 -82 65 -117 141 -136c194 -51 236 -115 236 -203z" />
    <glyph glyph-name="T" unicode="T" horiz-adv-x="590" 
d="M324 0h-54v674h-250v54h550v-54h-246v-674z" />
    <glyph glyph-name="U" unicode="U" horiz-adv-x="790" 
d="M670 263c0 -172 -137 -278 -272 -278c-172 0 -278 136 -278 271v472h54v-470c0 -109 85 -219 224 -219c108 0 218 86 218 224v465h54v-465z" />
    <glyph glyph-name="V" unicode="V" horiz-adv-x="710" 
d="M10 715l49 23l296 -636l297 636l49 -23l-346 -740z" />
    <glyph glyph-name="W" unicode="W" horiz-adv-x="1090" 
d="M390 715l49 23l296 -636l297 636l49 -23l-346 -740l-190 407l-190 -407l-345 740l49 23l296 -636l161 344z" />
    <glyph glyph-name="X" unicode="X" horiz-adv-x="768" 
d="M728 17l-41 -35l-303 361l-302 -360l-42 34l309 368l-274 327l41 34l271 -322l271 323l41 -35l-277 -330z" />
    <glyph glyph-name="Y" unicode="Y" horiz-adv-x="595" 
d="M324 0h-54v221l-230 494l49 23l208 -448l209 448l49 -23l-231 -495v-220z" />
    <glyph glyph-name="Z" unicode="Z" horiz-adv-x="740" 
d="M136 54h584v-54h-700l566 674h-490v54h605z" />
    <glyph glyph-name="bracketleft" unicode="[" horiz-adv-x="363" 
d="M130 -200v1000h233v-50h-183v-900h183v-50h-233z" />
    <glyph glyph-name="backslash" unicode="\" horiz-adv-x="449" 
d="M342 -147l-342 940l47 17l342 -940z" />
    <glyph glyph-name="bracketright" unicode="]" horiz-adv-x="362" 
d="M232 -200h-232v50h182v900h-182v50h232v-1000z" />
    <glyph glyph-name="asciicircum" unicode="^" horiz-adv-x="468" 
d="M353 448l-119 256l-119 -256l-45 21l164 353l164 -353z" />
    <glyph glyph-name="underscore" unicode="_" horiz-adv-x="500" 
d="M500 -75v-50h-500v50h500z" />
    <glyph glyph-name="grave" unicode="`" horiz-adv-x="294" 
d="M50 728l44 45l150 -160l-31 -32z" />
    <glyph glyph-name="a" unicode="a" 
d="M70 261c0 168 132 280 274 280c86 0 144 -35 180 -87v70h50v-524h-50v76c-38 -56 -97 -89 -174 -89c-168 0 -280 132 -280 274zM524 407c-40 50 -103 84 -179 84c-117 0 -225 -92 -225 -229c0 -117 92 -225 229 -225c68 0 133 31 175 84v286z" />
    <glyph glyph-name="b" unicode="b" 
d="M624 261c0 -142 -112 -274 -280 -274c-77 0 -136 33 -174 89v-76h-50v800h50v-346c36 52 94 87 180 87c142 0 274 -112 274 -280zM170 407v-286c42 -53 107 -84 175 -84c137 0 229 108 229 225c0 137 -108 229 -225 229c-76 0 -139 -34 -179 -84z" />
    <glyph glyph-name="c" unicode="c" horiz-adv-x="608" 
d="M120 262c0 -117 92 -225 229 -225c62 0 121 26 163 70l36 -35c-51 -54 -124 -85 -198 -85c-168 0 -280 132 -280 274c0 168 132 280 274 280c85 0 155 -34 204 -85l-36 -36c-40 43 -98 71 -167 71c-117 0 -225 -92 -225 -229z" />
    <glyph glyph-name="d" unicode="d" 
d="M70 261c0 168 132 280 274 280c86 0 144 -35 180 -87v346h50v-800h-50v76c-38 -56 -98 -89 -174 -89c-168 0 -280 132 -280 274zM524 407c-40 50 -103 84 -179 84c-117 0 -225 -92 -225 -229c0 -117 92 -225 229 -225c68 0 132 31 175 84v286z" />
    <glyph glyph-name="e" unicode="e" horiz-adv-x="657" 
d="M120 262c0 -117 92 -225 230 -225c40 0 80 11 114 31l25 -43c-42 -25 -90 -38 -139 -38c-168 0 -280 132 -280 274c0 168 133 280 275 280c134 0 233 -84 267 -193zM126 313l414 73c-39 62 -108 105 -195 105c-101 0 -196 -69 -219 -178z" />
    <glyph glyph-name="f" unicode="f" horiz-adv-x="416" 
d="M406 524v-50h-236v-474h-50v474h-50v50h50c2 166 133 276 274 276h72v-50h-72c-115 0 -222 -90 -224 -226h236z" />
    <glyph glyph-name="g" unicode="g" horiz-adv-x="695" 
d="M525 507h50v-381v-50c-3 -166 -134 -276 -274 -276h-72v50h72c115 0 222 90 224 226c-36 -53 -95 -90 -180 -90c-142 0 -275 112 -275 280c0 142 112 275 280 275c77 0 136 -33 175 -90v56zM525 120v287c-43 53 -108 84 -175 84c-138 0 -230 -109 -230 -225
c0 -138 109 -230 225 -230c77 0 139 34 180 84z" />
    <glyph glyph-name="h" unicode="h" horiz-adv-x="657" 
d="M487 0v358c0 66 -52 133 -137 133c-77 0 -139 -34 -180 -84v-407h-50v800h50v-346c37 52 95 87 180 87c118 0 187 -92 187 -182v-359h-50z" />
    <glyph glyph-name="i" unicode="i" horiz-adv-x="336" 
d="M194 0h-50v524h50v-524zM120 658c0 26 22 48 48 48s48 -22 48 -48s-22 -48 -48 -48s-48 22 -48 48z" />
    <glyph glyph-name="j" unicode="j" horiz-adv-x="378" 
d="M120 -164c40 40 66 97 66 164v524h50v-523v-1c0 -82 -32 -151 -81 -199zM162 658c0 26 22 48 48 48c27 0 48 -22 48 -48s-21 -48 -48 -48c-26 0 -48 22 -48 48z" />
    <glyph glyph-name="k" unicode="k" horiz-adv-x="570" 
d="M170 0h-50v800h50v-800zM499 508l-244 -244l245 -245l-35 -35l-280 280l279 279z" />
    <glyph glyph-name="l" unicode="l" horiz-adv-x="290" 
d="M170 0h-50v800h50v-800z" />
    <glyph glyph-name="m" unicode="m" horiz-adv-x="1022" 
d="M535 464c37 53 95 77 180 77c118 0 187 -92 187 -182v-359h-50v358c0 66 -51 133 -137 133c-77 0 -139 -34 -180 -84v-26c1 -7 2 -14 2 -22v-359h-50v358c0 66 -52 133 -138 133c-76 0 -139 -34 -179 -84v-407h-50v524h50v-70c36 52 94 87 180 87c81 0 140 -44 168 -101z
" />
    <glyph glyph-name="n" unicode="n" horiz-adv-x="707" 
d="M401 541c117 0 186 -92 186 -182v-359h-50v358c0 66 -51 133 -137 133c-138 0 -230 -108 -230 -225v-266h-50v524h50v-133c14 64 130 150 231 150z" />
    <glyph glyph-name="o" unicode="o" 
d="M70 261c0 168 132 280 274 280c168 0 280 -132 280 -274c0 -168 -132 -280 -274 -280c-168 0 -280 132 -280 274zM574 266c0 117 -92 225 -229 225c-117 0 -225 -92 -225 -229c0 -117 92 -225 229 -225c117 0 225 92 225 229z" />
    <glyph glyph-name="p" unicode="p" 
d="M624 266c0 -168 -132 -280 -274 -280c-86 0 -144 35 -180 88v-274h-50v727h50v-76c38 57 97 90 174 90c168 0 280 -133 280 -275zM170 120c40 -50 103 -84 179 -84c117 0 225 92 225 230c0 116 -92 225 -229 225c-68 0 -133 -31 -175 -84v-287z" />
    <glyph glyph-name="q" unicode="q" 
d="M70 266c0 142 112 275 280 275c77 0 136 -33 174 -90v76h50v-727h-50v274c-36 -53 -94 -88 -180 -88c-142 0 -274 112 -274 280zM524 120v287c-42 53 -107 84 -175 84c-137 0 -229 -109 -229 -225c0 -138 108 -230 225 -230c76 0 139 34 179 84z" />
    <glyph glyph-name="r" unicode="r" horiz-adv-x="441" 
d="M170 391c14 64 130 150 231 150v-50c-138 0 -231 -108 -231 -225v-266h-50v524h50v-133z" />
    <glyph glyph-name="s" unicode="s" horiz-adv-x="534" 
d="M215 389c0 -80 181 -103 181 -220c0 -9 -2 -15 -5 -25c-40 -134 -291 -154 -318 -156l-3 50c150 10 276 70 276 133c0 76 -181 104 -181 218v2c0 8 0 11 2 18c32 125 252 131 265 133l3 -50c-15 0 -220 -16 -220 -103z" />
    <glyph glyph-name="t" unicode="t" horiz-adv-x="466" 
d="M308 -11c-117 0 -188 92 -188 182v303h-50v50h50v148h50v-148h236v-50h-236v-302c0 -66 52 -133 137 -133c24 0 48 7 69 19l25 -43c-28 -17 -61 -26 -93 -26z" />
    <glyph glyph-name="u" unicode="u" horiz-adv-x="707" 
d="M306 -13c-117 0 -186 92 -186 182v355h50v-354c0 -66 51 -133 137 -133c138 0 230 108 230 225v262h50v-524h-50v137c-14 -64 -130 -150 -231 -150z" />
    <glyph glyph-name="v" unicode="v" horiz-adv-x="595" 
d="M90 541l208 -445l208 445l45 -21l-253 -542l-253 542z" />
    <glyph glyph-name="w" unicode="w" horiz-adv-x="885" 
d="M379 540l208 -446l208 446l45 -22l-253 -542l-145 311l-144 -309l-253 542l45 21l208 -445l117 250l-81 173z" />
    <glyph glyph-name="x" unicode="x" horiz-adv-x="608" 
d="M559 10l-38 -32l-217 258l-216 -258l-38 32l222 264l-198 237l38 32l195 -232l195 232l38 -32l-201 -239z" />
    <glyph glyph-name="y" unicode="y" horiz-adv-x="596" 
d="M163 -193l107 230l-225 483l45 21l208 -445l208 445l45 -21l-343 -735z" />
    <glyph glyph-name="z" unicode="z" horiz-adv-x="624" 
d="M157 50h417v-50h-524l398 474h-354v50h461z" />
    <glyph glyph-name="braceleft" unicode="{" horiz-adv-x="450" 
d="M120 325c43 0 98 32 98 102v249c0 84 63 124 117 124h115v-50h-113c-30 0 -69 -22 -69 -73v-249c0 -21 -3 -87 -66 -128c63 -41 66 -107 66 -128v-249c0 -51 39 -73 69 -73h113v-50h-115c-54 0 -117 40 -117 124v249c0 70 -55 102 -98 102v50z" />
    <glyph glyph-name="bar" unicode="|" horiz-adv-x="290" 
d="M170 -200h-50v1000h50v-1000z" />
    <glyph glyph-name="braceright" unicode="}" horiz-adv-x="450" 
d="M330 325v-50c-43 0 -98 -32 -98 -102v-249c0 -84 -62 -124 -117 -124h-115v50h113c30 0 69 22 69 73v249c0 21 3 87 66 128c-63 41 -66 107 -66 128v249c0 51 -39 73 -69 73h-113v50h115c55 0 117 -40 117 -124v-249c0 -70 55 -102 98 -102z" />
    <glyph glyph-name="asciitilde" unicode="~" horiz-adv-x="589" 
d="M559 231c-63 -51 -74 -69 -140 -69c-59 0 -85 27 -139 68c-56 42 -66 58 -116 58c-40 0 -49 -14 -103 -57l-31 39c49 39 72 68 134 68c69 0 87 -24 145 -68c46 -34 67 -58 111 -58c45 0 48 10 108 58z" />
    <glyph glyph-name="cent" unicode="&#xa2;" horiz-adv-x="547" 
d="M334 57v-122h-50v121c-101 10 -184 90 -184 207c0 99 69 192 184 204v122h50v-122c48 -6 88 -28 123 -63l-36 -34c-31 31 -68 48 -113 48c-97 0 -158 -73 -158 -156c0 -94 72 -157 156 -157c54 0 90 23 115 49l36 -35c-28 -29 -67 -56 -123 -62z" />
    <glyph glyph-name="sterling" unicode="&#xa3;" horiz-adv-x="580" 
d="M312 50c88 0 128 52 128 118c0 24 -7 36 -8 40l46 20c8 -22 12 -36 12 -58c0 -107 -74 -170 -178 -170h-192v50h48c50 0 100 16 100 79c0 48 -22 67 -65 119h-83v50h41c-23 27 -35 48 -35 93c0 69 53 148 153 148c37 0 98 -17 127 -86l-43 -25c-18 50 -59 61 -84 61
c-67 0 -103 -53 -103 -99c0 -41 17 -51 51 -92h117v-50h-76c30 -36 50 -65 50 -116c0 -16 -2 -30 -5 -42c-2 -8 -7 -15 -11 -20c-6 -6 -20 -17 -24 -20h34z" />
    <glyph glyph-name="dieresis" unicode="&#xa8;" horiz-adv-x="493" 
d="M100 609c0 27 22 48 48 48s48 -21 48 -48c0 -26 -22 -48 -48 -48s-48 22 -48 48zM297 609c0 27 22 48 48 48s48 -21 48 -48c0 -26 -22 -48 -48 -48s-48 22 -48 48z" />
    <glyph glyph-name="guillemotleft" unicode="&#xab;" horiz-adv-x="426" 
d="M185 450l44 -24l-92 -163l92 -162l-44 -25l-105 187zM293 450l44 -24l-92 -163l92 -162l-44 -25l-105 187z" />
    <glyph glyph-name="acute" unicode="&#xb4;" horiz-adv-x="294" 
d="M244 728l-163 -147l-31 32l150 160z" />
    <glyph glyph-name="cedilla" unicode="&#xb8;" horiz-adv-x="300" 
d="M189 0l-8 -14l-22 -39c5 4 15 5 20 5c9 0 16 -1 24 -5c26 -11 43 -39 43 -70c0 -45 -32 -85 -80 -85c-46 0 -86 32 -86 83h43c0 -20 12 -40 41 -40c17 0 39 12 39 41c0 17 -12 39 -41 39c-12 0 -26 -6 -34 -20l-37 21l40 70l8 14h50z" />
    <glyph glyph-name="guillemotright" unicode="&#xbb;" horiz-adv-x="427" 
d="M242 450l105 -187l-105 -187l-44 25l92 162l-92 163zM134 450l105 -187l-105 -187l-44 25l92 162l-92 163z" />
    <glyph glyph-name="Agrave" unicode="&#xc0;" horiz-adv-x="791" 
d="M232 938l45 45l150 -160l-31 -32zM50 11l346 740l345 -740l-49 -23l-126 270h-341l-126 -270zM541 312l-146 312l-145 -312h291z" />
    <glyph glyph-name="Aacute" unicode="&#xc1;" horiz-adv-x="791" 
d="M559 938l-163 -147l-31 32l150 160zM50 11l346 740l345 -740l-49 -23l-126 270h-341l-126 -270zM541 312l-146 312l-145 -312h291z" />
    <glyph glyph-name="Acircumflex" unicode="&#xc2;" horiz-adv-x="791" 
d="M287 791l-33 38l142 127l142 -127l-34 -38l-108 98zM50 11l346 740l345 -740l-49 -23l-126 270h-341l-126 -270zM541 312l-146 312l-145 -312h291z" />
    <glyph glyph-name="Atilde" unicode="&#xc3;" horiz-adv-x="791" 
d="M340 846c-16 0 -31 -17 -41 -34l-44 23c5 9 34 60 84 60c55 0 83 -54 113 -54c12 0 25 9 40 34l44 -24c-19 -28 -38 -60 -89 -60c-49 0 -76 55 -107 55zM50 11l346 740l345 -740l-49 -23l-126 270h-341l-126 -270zM541 312l-146 312l-145 -312h291z" />
    <glyph glyph-name="Adieresis" unicode="&#xc4;" horiz-adv-x="791" 
d="M249 839c0 27 22 48 48 48c27 0 48 -21 48 -48c0 -26 -21 -48 -48 -48c-26 0 -48 22 -48 48zM446 839c0 27 22 48 48 48c27 0 48 -21 48 -48c0 -26 -21 -48 -48 -48c-26 0 -48 22 -48 48zM50 11l346 740l345 -740l-49 -23l-126 270h-341l-126 -270zM541 312l-146 312
l-145 -312h291z" />
    <glyph glyph-name="Aring" unicode="&#xc5;" horiz-adv-x="791" 
d="M300 838c0 53 37 99 93 99c52 0 99 -37 99 -93c0 -53 -37 -99 -93 -99c-53 0 -99 37 -99 93zM442 843c0 19 -14 44 -48 44c-19 0 -44 -14 -44 -48c0 -19 14 -44 47 -44c19 0 45 14 45 48zM50 11l346 740l345 -740l-49 -23l-126 270h-341l-126 -270zM541 312l-146 312
l-145 -312h291z" />
    <glyph glyph-name="Ccedilla" unicode="&#xc7;" horiz-adv-x="806" 
d="M466 -11l-8 -14l-23 -39c5 4 15 5 21 5c9 0 16 -1 24 -5c25 -11 43 -39 43 -70c0 -45 -32 -85 -81 -85c-46 0 -85 32 -85 83h43c0 -20 12 -40 41 -40c16 0 38 12 38 41c0 16 -12 38 -41 38c-11 0 -26 -6 -33 -19l-38 21l41 70l8 14h50zM109 363c0 -175 140 -327 331 -327
c85 0 168 34 230 94l38 -38c-71 -70 -167 -110 -267 -110c-228 0 -386 181 -386 380c0 228 181 386 380 386c112 0 208 -44 276 -113l-38 -38c-58 59 -140 97 -238 97c-174 0 -326 -140 -326 -331z" />
    <glyph glyph-name="Egrave" unicode="&#xc8;" horiz-adv-x="588" 
d="M122 935l44 45l150 -160l-31 -32zM394 412v-54h-220v-304h314v-54h-368v728h330v-54h-276v-262h220z" />
    <glyph glyph-name="Eacute" unicode="&#xc9;" horiz-adv-x="588" 
d="M448 935l-163 -147l-31 32l150 160zM394 412v-54h-220v-304h314v-54h-368v728h330v-54h-276v-262h220z" />
    <glyph glyph-name="Ecircumflex" unicode="&#xca;" horiz-adv-x="588" 
d="M176 788l-33 38l142 127l142 -127l-34 -38l-108 98zM394 412v-54h-220v-304h314v-54h-368v728h330v-54h-276v-262h220z" />
    <glyph glyph-name="Edieresis" unicode="&#xcb;" horiz-adv-x="588" 
d="M138 836c0 27 22 48 48 48c27 0 48 -21 48 -48c0 -26 -21 -48 -48 -48c-26 0 -48 22 -48 48zM335 836c0 27 22 48 48 48c27 0 48 -21 48 -48c0 -26 -21 -48 -48 -48c-26 0 -48 22 -48 48zM394 412v-54h-220v-304h314v-54h-368v728h330v-54h-276v-262h220z" />
    <glyph glyph-name="Igrave" unicode="&#xcc;" horiz-adv-x="294" 
d="M-16 935l44 45l150 -160l-31 -32zM174 0h-54v728h54v-728z" />
    <glyph glyph-name="Iacute" unicode="&#xcd;" horiz-adv-x="294" 
d="M310 935l-163 -147l-31 32l150 160zM174 0h-54v728h54v-728z" />
    <glyph glyph-name="Icircumflex" unicode="&#xce;" horiz-adv-x="294" 
d="M38 788l-33 38l142 127l142 -127l-33 -38l-109 98zM174 0h-54v728h54v-728z" />
    <glyph glyph-name="Idieresis" unicode="&#xcf;" horiz-adv-x="294" 
d="M0 836c0 27 22 48 48 48c27 0 48 -21 48 -48c0 -26 -21 -48 -48 -48c-26 0 -48 22 -48 48zM198 836c0 27 21 48 48 48c26 0 48 -21 48 -48c0 -26 -22 -48 -48 -48c-27 0 -48 22 -48 48zM174 0h-54v728h54v-728z" />
    <glyph glyph-name="Ntilde" unicode="&#xd1;" horiz-adv-x="821" 
d="M357 846c-16 0 -31 -16 -41 -34l-44 24c5 9 34 60 84 60c55 0 83 -55 113 -55c12 0 25 9 40 35l44 -24c-19 -28 -38 -60 -89 -60c-50 0 -76 54 -107 54zM120 752l527 -628v604h54v-752l-527 628v-604h-54v752z" />
    <glyph glyph-name="Ograve" unicode="&#xd2;" horiz-adv-x="876" 
d="M272 935l44 45l150 -160l-31 -32zM55 362c0 228 181 386 380 386c228 0 386 -181 386 -380c0 -228 -181 -386 -380 -386c-228 0 -386 181 -386 380zM767 365c0 180 -141 329 -332 329c-167 0 -326 -132 -326 -331c0 -167 132 -327 331 -327c168 0 327 132 327 329z" />
    <glyph glyph-name="Oacute" unicode="&#xd3;" horiz-adv-x="876" 
d="M598 935l-163 -147l-31 32l150 160zM55 362c0 228 181 386 380 386c228 0 386 -181 386 -380c0 -228 -181 -386 -380 -386c-228 0 -386 181 -386 380zM767 365c0 180 -141 329 -332 329c-167 0 -326 -132 -326 -331c0 -167 132 -327 331 -327c168 0 327 132 327 329z" />
    <glyph glyph-name="Ocircumflex" unicode="&#xd4;" horiz-adv-x="876" 
d="M326 788l-33 38l142 127l142 -127l-34 -38l-108 98zM55 362c0 228 181 386 380 386c228 0 386 -181 386 -380c0 -228 -181 -386 -380 -386c-228 0 -386 181 -386 380zM767 365c0 180 -141 329 -332 329c-167 0 -326 -132 -326 -331c0 -167 132 -327 331 -327
c168 0 327 132 327 329z" />
    <glyph glyph-name="Otilde" unicode="&#xd5;" horiz-adv-x="876" 
d="M379 843c-16 0 -31 -17 -40 -34l-44 23c5 9 33 60 83 60c55 0 83 -54 113 -54c13 0 25 9 40 34l44 -24c-19 -28 -38 -60 -89 -60c-49 0 -76 55 -107 55zM55 362c0 228 181 386 380 386c228 0 386 -181 386 -380c0 -228 -181 -386 -380 -386c-228 0 -386 181 -386 380z
M767 365c0 180 -141 329 -332 329c-167 0 -326 -132 -326 -331c0 -167 132 -327 331 -327c168 0 327 132 327 329z" />
    <glyph glyph-name="Odieresis" unicode="&#xd6;" horiz-adv-x="876" 
d="M288 836c0 27 22 48 48 48c27 0 48 -21 48 -48c0 -26 -21 -48 -48 -48c-26 0 -48 22 -48 48zM485 836c0 27 22 48 48 48c27 0 48 -21 48 -48c0 -26 -21 -48 -48 -48c-26 0 -48 22 -48 48zM55 362c0 228 181 386 380 386c228 0 386 -181 386 -380
c0 -228 -181 -386 -380 -386c-228 0 -386 181 -386 380zM767 365c0 180 -141 329 -332 329c-167 0 -326 -132 -326 -331c0 -167 132 -327 331 -327c168 0 327 132 327 329z" />
    <glyph glyph-name="Ugrave" unicode="&#xd9;" horiz-adv-x="790" 
d="M232 935l44 45l150 -160l-31 -32zM670 263c0 -172 -137 -278 -272 -278c-172 0 -278 136 -278 271v472h54v-470c0 -109 85 -219 224 -219c108 0 218 86 218 224v465h54v-465z" />
    <glyph glyph-name="Uacute" unicode="&#xda;" horiz-adv-x="790" 
d="M558 935l-163 -147l-31 32l150 160zM670 263c0 -172 -137 -278 -272 -278c-172 0 -278 136 -278 271v472h54v-470c0 -109 85 -219 224 -219c108 0 218 86 218 224v465h54v-465z" />
    <glyph glyph-name="Ucircumflex" unicode="&#xdb;" horiz-adv-x="790" 
d="M286 788l-33 38l142 127l142 -127l-33 -38l-109 98zM670 263c0 -172 -137 -278 -272 -278c-172 0 -278 136 -278 271v472h54v-470c0 -109 85 -219 224 -219c108 0 218 86 218 224v465h54v-465z" />
    <glyph glyph-name="Udieresis" unicode="&#xdc;" horiz-adv-x="790" 
d="M248 836c0 27 22 48 48 48c27 0 48 -21 48 -48c0 -26 -21 -48 -48 -48c-26 0 -48 22 -48 48zM445 836c0 27 22 48 48 48c27 0 48 -21 48 -48c0 -26 -21 -48 -48 -48c-26 0 -48 22 -48 48zM670 263c0 -172 -137 -278 -272 -278c-172 0 -278 136 -278 271v472h54v-470
c0 -109 85 -219 224 -219c108 0 218 86 218 224v465h54v-465z" />
    <glyph glyph-name="Yacute" unicode="&#xdd;" horiz-adv-x="595" 
d="M462 935l-164 -147l-31 32l150 160zM324 0h-54v221l-230 494l49 23l208 -448l209 448l49 -23l-231 -495v-220z" />
    <glyph glyph-name="agrave" unicode="&#xe0;" 
d="M181 728l44 45l150 -160l-31 -32zM70 261c0 168 132 280 274 280c86 0 144 -35 180 -87v70h50v-524h-50v76c-38 -56 -97 -89 -174 -89c-168 0 -280 132 -280 274zM524 407c-40 50 -103 84 -179 84c-117 0 -225 -92 -225 -229c0 -117 92 -225 229 -225c68 0 133 31 175 84
v286z" />
    <glyph glyph-name="aacute" unicode="&#xe1;" 
d="M507 728l-163 -147l-31 32l150 160zM70 261c0 168 132 280 274 280c86 0 144 -35 180 -87v70h50v-524h-50v76c-38 -56 -97 -89 -174 -89c-168 0 -280 132 -280 274zM524 407c-40 50 -103 84 -179 84c-117 0 -225 -92 -225 -229c0 -117 92 -225 229 -225
c68 0 133 31 175 84v286z" />
    <glyph glyph-name="acircumflex" unicode="&#xe2;" 
d="M236 581l-34 37l142 128l142 -128l-33 -37l-109 97zM70 261c0 168 132 280 274 280c86 0 144 -35 180 -87v70h50v-524h-50v76c-38 -56 -97 -89 -174 -89c-168 0 -280 132 -280 274zM524 407c-40 50 -103 84 -179 84c-117 0 -225 -92 -225 -229c0 -117 92 -225 229 -225
c68 0 133 31 175 84v286z" />
    <glyph glyph-name="atilde" unicode="&#xe3;" 
d="M289 635c-17 0 -31 -16 -41 -34l-44 24c5 9 33 60 84 60c54 0 82 -55 113 -55c12 0 25 9 39 35l44 -24c-18 -28 -37 -60 -89 -60c-49 0 -76 54 -106 54zM70 261c0 168 132 280 274 280c86 0 144 -35 180 -87v70h50v-524h-50v76c-38 -56 -97 -89 -174 -89
c-168 0 -280 132 -280 274zM524 407c-40 50 -103 84 -179 84c-117 0 -225 -92 -225 -229c0 -117 92 -225 229 -225c68 0 133 31 175 84v286z" />
    <glyph glyph-name="adieresis" unicode="&#xe4;" 
d="M198 629c0 26 21 48 48 48c26 0 48 -22 48 -48s-22 -48 -48 -48c-27 0 -48 22 -48 48zM395 629c0 26 21 48 48 48c26 0 48 -22 48 -48s-22 -48 -48 -48c-27 0 -48 22 -48 48zM70 261c0 168 132 280 274 280c86 0 144 -35 180 -87v70h50v-524h-50v76
c-38 -56 -97 -89 -174 -89c-168 0 -280 132 -280 274zM524 407c-40 50 -103 84 -179 84c-117 0 -225 -92 -225 -229c0 -117 92 -225 229 -225c68 0 133 31 175 84v286z" />
    <glyph glyph-name="aring" unicode="&#xe5;" 
d="M248 674c0 53 37 99 93 99c53 0 99 -37 99 -93c0 -52 -37 -99 -93 -99c-52 0 -99 37 -99 93zM390 679c0 19 -14 44 -48 44c-18 0 -44 -14 -44 -48c0 -19 14 -44 48 -44c19 0 44 14 44 48zM70 261c0 168 132 280 274 280c86 0 144 -35 180 -87v70h50v-524h-50v76
c-38 -56 -97 -89 -174 -89c-168 0 -280 132 -280 274zM524 407c-40 50 -103 84 -179 84c-117 0 -225 -92 -225 -229c0 -117 92 -225 229 -225c68 0 133 31 175 84v286z" />
    <glyph glyph-name="ccedilla" unicode="&#xe7;" horiz-adv-x="608" 
d="M375 -6l-8 -14l-23 -39c6 4 15 5 21 5c9 0 16 -1 24 -5c25 -11 43 -39 43 -70c0 -45 -32 -85 -81 -85c-46 0 -85 32 -85 83h43c0 -20 12 -40 41 -40c17 0 39 12 39 41c0 16 -13 38 -42 38c-11 0 -26 -6 -33 -19l-38 21l41 70l8 14h50zM120 262c0 -117 92 -225 229 -225
c62 0 121 26 163 70l36 -35c-51 -54 -124 -85 -198 -85c-168 0 -280 132 -280 274c0 168 132 280 274 280c85 0 155 -34 204 -85l-36 -36c-40 43 -98 71 -167 71c-117 0 -225 -92 -225 -229z" />
    <glyph glyph-name="egrave" unicode="&#xe8;" horiz-adv-x="657" 
d="M181 728l44 45l151 -160l-31 -32zM120 262c0 -117 92 -225 230 -225c40 0 80 11 114 31l25 -43c-42 -25 -90 -38 -139 -38c-168 0 -280 132 -280 274c0 168 133 280 275 280c134 0 233 -84 267 -193zM126 313l414 73c-39 62 -108 105 -195 105c-101 0 -196 -69 -219 -178
z" />
    <glyph glyph-name="eacute" unicode="&#xe9;" horiz-adv-x="657" 
d="M508 728l-163 -147l-31 32l150 160zM120 262c0 -117 92 -225 230 -225c40 0 80 11 114 31l25 -43c-42 -25 -90 -38 -139 -38c-168 0 -280 132 -280 274c0 168 133 280 275 280c134 0 233 -84 267 -193zM126 313l414 73c-39 62 -108 105 -195 105
c-101 0 -196 -69 -219 -178z" />
    <glyph glyph-name="ecircumflex" unicode="&#xea;" horiz-adv-x="657" 
d="M236 581l-33 37l142 128l142 -128l-34 -37l-108 97zM120 262c0 -117 92 -225 230 -225c40 0 80 11 114 31l25 -43c-42 -25 -90 -38 -139 -38c-168 0 -280 132 -280 274c0 168 133 280 275 280c134 0 233 -84 267 -193zM126 313l414 73c-39 62 -108 105 -195 105
c-101 0 -196 -69 -219 -178z" />
    <glyph glyph-name="edieresis" unicode="&#xeb;" horiz-adv-x="657" 
d="M198 629c0 26 22 48 48 48c27 0 48 -22 48 -48s-21 -48 -48 -48c-26 0 -48 22 -48 48zM395 629c0 26 22 48 48 48c27 0 48 -22 48 -48s-21 -48 -48 -48c-26 0 -48 22 -48 48zM120 262c0 -117 92 -225 230 -225c40 0 80 11 114 31l25 -43c-42 -25 -90 -38 -139 -38
c-168 0 -280 132 -280 274c0 168 133 280 275 280c134 0 233 -84 267 -193zM126 313l414 73c-39 62 -108 105 -195 105c-101 0 -196 -69 -219 -178z" />
    <glyph glyph-name="igrave" unicode="&#xec;" horiz-adv-x="336" 
d="M6 728l44 45l150 -160l-31 -32zM194 0h-50v524h50v-524z" />
    <glyph glyph-name="iacute" unicode="&#xed;" horiz-adv-x="336" 
d="M332 728l-163 -147l-31 32l150 160zM194 0h-50v524h50v-524z" />
    <glyph glyph-name="icircumflex" unicode="&#xee;" horiz-adv-x="336" 
d="M60 581l-33 37l142 128l142 -128l-33 -37l-109 97zM194 0h-50v524h50v-524z" />
    <glyph glyph-name="idieresis" unicode="&#xef;" horiz-adv-x="336" 
d="M22 629c0 26 22 48 48 48c27 0 48 -22 48 -48s-21 -48 -48 -48c-26 0 -48 22 -48 48zM220 629c0 26 21 48 48 48c26 0 48 -22 48 -48s-22 -48 -48 -48c-27 0 -48 22 -48 48zM194 0h-50v524h50v-524z" />
    <glyph glyph-name="ntilde" unicode="&#xf1;" horiz-adv-x="707" 
d="M298 635c-16 0 -31 -16 -41 -34l-44 24c5 9 34 60 84 60c55 0 83 -55 113 -55c12 0 25 9 40 35l44 -24c-19 -28 -38 -60 -89 -60c-49 0 -76 54 -107 54zM401 541c117 0 186 -92 186 -182v-359h-50v358c0 66 -51 133 -137 133c-138 0 -230 -108 -230 -225v-266h-50v524h50
v-133c14 64 130 150 231 150z" />
    <glyph glyph-name="ograve" unicode="&#xf2;" 
d="M181 728l44 45l150 -160l-31 -32zM70 261c0 168 132 280 274 280c168 0 280 -132 280 -274c0 -168 -132 -280 -274 -280c-168 0 -280 132 -280 274zM574 266c0 117 -92 225 -229 225c-117 0 -225 -92 -225 -229c0 -117 92 -225 229 -225c117 0 225 92 225 229z" />
    <glyph glyph-name="oacute" unicode="&#xf3;" 
d="M507 728l-163 -147l-31 32l150 160zM70 261c0 168 132 280 274 280c168 0 280 -132 280 -274c0 -168 -132 -280 -274 -280c-168 0 -280 132 -280 274zM574 266c0 117 -92 225 -229 225c-117 0 -225 -92 -225 -229c0 -117 92 -225 229 -225c117 0 225 92 225 229z" />
    <glyph glyph-name="ocircumflex" unicode="&#xf4;" 
d="M236 581l-34 37l142 128l142 -128l-33 -37l-109 97zM70 261c0 168 132 280 274 280c168 0 280 -132 280 -274c0 -168 -132 -280 -274 -280c-168 0 -280 132 -280 274zM574 266c0 117 -92 225 -229 225c-117 0 -225 -92 -225 -229c0 -117 92 -225 229 -225
c117 0 225 92 225 229z" />
    <glyph glyph-name="otilde" unicode="&#xf5;" 
d="M289 635c-17 0 -31 -16 -41 -34l-44 24c5 9 33 60 84 60c54 0 82 -55 113 -55c12 0 25 9 39 35l44 -24c-18 -28 -37 -60 -89 -60c-49 0 -76 54 -106 54zM70 261c0 168 132 280 274 280c168 0 280 -132 280 -274c0 -168 -132 -280 -274 -280c-168 0 -280 132 -280 274z
M574 266c0 117 -92 225 -229 225c-117 0 -225 -92 -225 -229c0 -117 92 -225 229 -225c117 0 225 92 225 229z" />
    <glyph glyph-name="odieresis" unicode="&#xf6;" 
d="M198 629c0 26 21 48 48 48c26 0 48 -22 48 -48s-22 -48 -48 -48c-27 0 -48 22 -48 48zM395 629c0 26 21 48 48 48c26 0 48 -22 48 -48s-22 -48 -48 -48c-27 0 -48 22 -48 48zM70 261c0 168 132 280 274 280c168 0 280 -132 280 -274c0 -168 -132 -280 -274 -280
c-168 0 -280 132 -280 274zM574 266c0 117 -92 225 -229 225c-117 0 -225 -92 -225 -229c0 -117 92 -225 229 -225c117 0 225 92 225 229z" />
    <glyph glyph-name="ugrave" unicode="&#xf9;" horiz-adv-x="707" 
d="M190 728l44 45l150 -160l-31 -32zM306 -13c-117 0 -186 92 -186 182v355h50v-354c0 -66 51 -133 137 -133c138 0 230 108 230 225v262h50v-524h-50v137c-14 -64 -130 -150 -231 -150z" />
    <glyph glyph-name="uacute" unicode="&#xfa;" horiz-adv-x="707" 
d="M517 728l-164 -147l-31 32l150 160zM306 -13c-117 0 -186 92 -186 182v355h50v-354c0 -66 51 -133 137 -133c138 0 230 108 230 225v262h50v-524h-50v137c-14 -64 -130 -150 -231 -150z" />
    <glyph glyph-name="ucircumflex" unicode="&#xfb;" horiz-adv-x="707" 
d="M245 581l-34 37l142 128l142 -128l-33 -37l-109 97zM306 -13c-117 0 -186 92 -186 182v355h50v-354c0 -66 51 -133 137 -133c138 0 230 108 230 225v262h50v-524h-50v137c-14 -64 -130 -150 -231 -150z" />
    <glyph glyph-name="udieresis" unicode="&#xfc;" horiz-adv-x="707" 
d="M207 629c0 26 21 48 48 48c26 0 48 -22 48 -48s-22 -48 -48 -48c-27 0 -48 22 -48 48zM404 629c0 26 21 48 48 48c26 0 48 -22 48 -48s-22 -48 -48 -48c-27 0 -48 22 -48 48zM306 -13c-117 0 -186 92 -186 182v355h50v-354c0 -66 51 -133 137 -133c138 0 230 108 230 225
v262h50v-524h-50v137c-14 -64 -130 -150 -231 -150z" />
    <glyph glyph-name="yacute" unicode="&#xfd;" horiz-adv-x="596" 
d="M458 728l-164 -147l-31 32l150 160zM163 -193l107 230l-225 483l45 21l208 -445l208 445l45 -21l-343 -735z" />
    <glyph glyph-name="ydieresis" unicode="&#xff;" horiz-adv-x="596" 
d="M156 629c0 27 21 48 48 48c26 0 48 -21 48 -48c0 -26 -22 -48 -48 -48c-27 0 -48 22 -48 48zM353 629c0 27 21 48 48 48c26 0 48 -21 48 -48c0 -26 -22 -48 -48 -48c-27 0 -48 22 -48 48zM163 -193l107 230l-225 483l45 21l208 -445l208 445l45 -21l-343 -735z" />
    <glyph glyph-name="Amacron" unicode="&#x100;" horiz-adv-x="791" 
d="M521 841v-50h-250v50h250zM50 11l346 740l345 -740l-49 -23l-126 270h-341l-126 -270zM541 312l-146 312l-145 -312h291z" />
    <glyph glyph-name="amacron" unicode="&#x101;" 
d="M469 631v-50h-250v50h250zM70 261c0 168 132 280 274 280c86 0 144 -35 180 -87v70h50v-524h-50v76c-38 -56 -97 -89 -174 -89c-168 0 -280 132 -280 274zM524 407c-40 50 -103 84 -179 84c-117 0 -225 -92 -225 -229c0 -117 92 -225 229 -225c68 0 133 31 175 84v286z
" />
    <glyph glyph-name="Abreve" unicode="&#x102;" horiz-adv-x="791" 
d="M259 906l50 8c3 -18 16 -70 90 -73h2c23 0 69 13 82 74l49 -8c-19 -94 -91 -116 -130 -116c-25 0 -126 8 -143 115zM50 11l346 740l345 -740l-49 -23l-126 270h-341l-126 -270zM541 312l-146 312l-145 -312h291z" />
    <glyph glyph-name="abreve" unicode="&#x103;" 
d="M208 696l49 8c3 -19 17 -71 91 -73h2c23 0 69 13 81 73l49 -8c-19 -93 -91 -115 -129 -115c-26 0 -126 7 -143 115zM70 261c0 168 132 280 274 280c86 0 144 -35 180 -87v70h50v-524h-50v76c-38 -56 -97 -89 -174 -89c-168 0 -280 132 -280 274zM524 407
c-40 50 -103 84 -179 84c-117 0 -225 -92 -225 -229c0 -117 92 -225 229 -225c68 0 133 31 175 84v286z" />
    <glyph glyph-name="Aogonek" unicode="&#x104;" horiz-adv-x="791" 
d="M692 -6h47c-35 -25 -70 -46 -70 -85c0 -33 28 -58 60 -58c17 0 32 5 51 12l16 -45c-19 -7 -54 -16 -88 -16c-32 0 -88 26 -88 80c0 49 23 81 72 112zM50 11l346 740l345 -740l-49 -23l-126 270h-341l-126 -270zM541 312l-146 312l-145 -312h291z" />
    <glyph glyph-name="aogonek" unicode="&#x105;" 
d="M525 -7h47c-35 -25 -70 -46 -70 -85c0 -33 28 -58 60 -58c17 0 32 5 51 12l16 -45c-19 -7 -54 -16 -88 -16c-32 0 -88 26 -88 80c0 49 23 81 72 112zM70 261c0 168 132 280 274 280c86 0 144 -35 180 -87v70h50v-524h-50v76c-38 -56 -97 -89 -174 -89
c-168 0 -280 132 -280 274zM524 407c-40 50 -103 84 -179 84c-117 0 -225 -92 -225 -229c0 -117 92 -225 229 -225c68 0 133 31 175 84v286z" />
    <glyph glyph-name="Cacute" unicode="&#x106;" horiz-adv-x="806" 
d="M598 935l-163 -147l-31 32l150 160zM109 363c0 -175 140 -327 331 -327c85 0 168 34 230 94l38 -38c-71 -70 -167 -110 -267 -110c-228 0 -386 181 -386 380c0 228 181 386 380 386c112 0 208 -44 276 -113l-38 -38c-58 59 -140 97 -238 97c-174 0 -326 -140 -326 -331z
" />
    <glyph glyph-name="cacute" unicode="&#x107;" horiz-adv-x="608" 
d="M507 728l-163 -147l-31 32l150 160zM120 262c0 -117 92 -225 229 -225c62 0 121 26 163 70l36 -35c-51 -54 -124 -85 -198 -85c-168 0 -280 132 -280 274c0 168 132 280 274 280c85 0 155 -34 204 -85l-36 -36c-40 43 -98 71 -167 71c-117 0 -225 -92 -225 -229z" />
    <glyph glyph-name="Ccircumflex" unicode="&#x108;" horiz-adv-x="806" 
d="M326 788l-33 38l142 127l142 -127l-34 -38l-108 98zM109 363c0 -175 140 -327 331 -327c85 0 168 34 230 94l38 -38c-71 -70 -167 -110 -267 -110c-228 0 -386 181 -386 380c0 228 181 386 380 386c112 0 208 -44 276 -113l-38 -38c-58 59 -140 97 -238 97
c-174 0 -326 -140 -326 -331z" />
    <glyph glyph-name="ccircumflex" unicode="&#x109;" horiz-adv-x="608" 
d="M235 581l-33 37l142 128l142 -128l-33 -37l-109 97zM120 262c0 -117 92 -225 229 -225c62 0 121 26 163 70l36 -35c-51 -54 -124 -85 -198 -85c-168 0 -280 132 -280 274c0 168 132 280 274 280c85 0 155 -34 204 -85l-36 -36c-40 43 -98 71 -167 71
c-117 0 -225 -92 -225 -229z" />
    <glyph glyph-name="Cdotaccent" unicode="&#x10a;" horiz-adv-x="806" 
d="M387 836c0 27 21 48 48 48c26 0 48 -21 48 -48c0 -26 -22 -48 -48 -48c-27 0 -48 22 -48 48zM109 363c0 -175 140 -327 331 -327c85 0 168 34 230 94l38 -38c-71 -70 -167 -110 -267 -110c-228 0 -386 181 -386 380c0 228 181 386 380 386c112 0 208 -44 276 -113
l-38 -38c-58 59 -140 97 -238 97c-174 0 -326 -140 -326 -331z" />
    <glyph glyph-name="cdotaccent" unicode="&#x10b;" horiz-adv-x="608" 
d="M296 629c0 26 21 48 48 48c26 0 48 -22 48 -48s-22 -48 -48 -48c-27 0 -48 22 -48 48zM120 262c0 -117 92 -225 229 -225c62 0 121 26 163 70l36 -35c-51 -54 -124 -85 -198 -85c-168 0 -280 132 -280 274c0 168 132 280 274 280c85 0 155 -34 204 -85l-36 -36
c-40 43 -98 71 -167 71c-117 0 -225 -92 -225 -229z" />
    <glyph glyph-name="Ccaron" unicode="&#x10c;" horiz-adv-x="806" 
d="M543 953l34 -37l-142 -128l-142 128l33 37l109 -97zM109 363c0 -175 140 -327 331 -327c85 0 168 34 230 94l38 -38c-71 -70 -167 -110 -267 -110c-228 0 -386 181 -386 380c0 228 181 386 380 386c112 0 208 -44 276 -113l-38 -38c-58 59 -140 97 -238 97
c-174 0 -326 -140 -326 -331z" />
    <glyph glyph-name="ccaron" unicode="&#x10d;" horiz-adv-x="608" 
d="M453 746l33 -38l-142 -127l-142 127l33 38l109 -98zM120 262c0 -117 92 -225 229 -225c62 0 121 26 163 70l36 -35c-51 -54 -124 -85 -198 -85c-168 0 -280 132 -280 274c0 168 132 280 274 280c85 0 155 -34 204 -85l-36 -36c-40 43 -98 71 -167 71
c-117 0 -225 -92 -225 -229z" />
    <glyph glyph-name="Dcaron" unicode="&#x10e;" horiz-adv-x="723" 
d="M503 953l33 -37l-142 -128l-142 128l34 37l108 -97zM302 728c202 0 366 -161 366 -363s-164 -365 -366 -365h-182v728h182zM302 674h-128v-620h128c172 0 311 139 311 311s-139 309 -311 309z" />
    <glyph glyph-name="dcaron" unicode="&#x10f;" horiz-adv-x="857" 
d="M698 800l60 -21l-82 -204l-42 15zM70 261c0 168 132 280 274 280c86 0 144 -35 180 -87v346h50v-800h-50v76c-38 -56 -98 -89 -174 -89c-168 0 -280 132 -280 274zM524 407c-40 50 -103 84 -179 84c-117 0 -225 -92 -225 -229c0 -117 92 -225 229 -225
c68 0 132 31 175 84v286z" />
    <glyph glyph-name="Emacron" unicode="&#x112;" horiz-adv-x="588" 
d="M410 838v-50h-250v50h250zM394 412v-54h-220v-304h314v-54h-368v728h330v-54h-276v-262h220z" />
    <glyph glyph-name="emacron" unicode="&#x113;" horiz-adv-x="657" 
d="M470 631v-50h-250v50h250zM120 262c0 -117 92 -225 230 -225c40 0 80 11 114 31l25 -43c-42 -25 -90 -38 -139 -38c-168 0 -280 132 -280 274c0 168 133 280 275 280c134 0 233 -84 267 -193zM126 313l414 73c-39 62 -108 105 -195 105c-101 0 -196 -69 -219 -178z" />
    <glyph glyph-name="Ebreve" unicode="&#x114;" horiz-adv-x="588" 
d="M149 903l49 8c3 -18 16 -70 90 -73h2c23 0 69 13 82 74l49 -8c-19 -94 -91 -116 -130 -116c-25 0 -125 8 -142 115zM394 412v-54h-220v-304h314v-54h-368v728h330v-54h-276v-262h220z" />
    <glyph glyph-name="ebreve" unicode="&#x115;" horiz-adv-x="657" 
d="M208 696l50 8c3 -19 16 -71 90 -73h2c23 0 69 13 81 73l50 -8c-19 -93 -91 -115 -130 -115c-25 0 -126 7 -143 115zM120 262c0 -117 92 -225 230 -225c40 0 80 11 114 31l25 -43c-42 -25 -90 -38 -139 -38c-168 0 -280 132 -280 274c0 168 133 280 275 280
c134 0 233 -84 267 -193zM126 313l414 73c-39 62 -108 105 -195 105c-101 0 -196 -69 -219 -178z" />
    <glyph glyph-name="Edotaccent" unicode="&#x116;" horiz-adv-x="588" 
d="M237 836c0 27 21 48 48 48c26 0 48 -21 48 -48c0 -26 -22 -48 -48 -48c-27 0 -48 22 -48 48zM394 412v-54h-220v-304h314v-54h-368v728h330v-54h-276v-262h220z" />
    <glyph glyph-name="edotaccent" unicode="&#x117;" horiz-adv-x="657" 
d="M297 629c0 26 21 48 48 48c26 0 48 -22 48 -48s-22 -48 -48 -48c-27 0 -48 22 -48 48zM120 262c0 -117 92 -225 230 -225c40 0 80 11 114 31l25 -43c-42 -25 -90 -38 -139 -38c-168 0 -280 132 -280 274c0 168 133 280 275 280c134 0 233 -84 267 -193zM126 313l414 73
c-39 62 -108 105 -195 105c-101 0 -196 -69 -219 -178z" />
    <glyph glyph-name="Eogonek" unicode="&#x118;" horiz-adv-x="588" 
d="M124 6h47c-35 -25 -70 -46 -70 -85c0 -33 28 -58 60 -58c17 0 32 5 51 12l16 -45c-19 -7 -54 -16 -88 -16c-32 0 -88 26 -88 80c0 49 23 81 72 112zM394 412v-54h-220v-304h314v-54h-368v728h330v-54h-276v-262h220z" />
    <glyph glyph-name="eogonek" unicode="&#x119;" horiz-adv-x="657" 
d="M327 -7h47c-35 -25 -70 -46 -70 -85c0 -33 28 -58 60 -58c17 0 32 5 51 12l16 -45c-19 -7 -54 -16 -88 -16c-32 0 -88 26 -88 80c0 49 23 81 72 112zM120 262c0 -117 92 -225 230 -225c40 0 80 11 114 31l25 -43c-42 -25 -90 -38 -139 -38c-168 0 -280 132 -280 274
c0 168 133 280 275 280c134 0 233 -84 267 -193zM126 313l414 73c-39 62 -108 105 -195 105c-101 0 -196 -69 -219 -178z" />
    <glyph glyph-name="Ecaron" unicode="&#x11a;" horiz-adv-x="588" 
d="M393 953l34 -37l-142 -128l-142 128l33 37l109 -97zM394 412v-54h-220v-304h314v-54h-368v728h330v-54h-276v-262h220z" />
    <glyph glyph-name="ecaron" unicode="&#x11b;" horiz-adv-x="657" 
d="M453 746l34 -38l-142 -127l-142 127l33 38l109 -98zM120 262c0 -117 92 -225 230 -225c40 0 80 11 114 31l25 -43c-42 -25 -90 -38 -139 -38c-168 0 -280 132 -280 274c0 168 133 280 275 280c134 0 233 -84 267 -193zM126 313l414 73c-39 62 -108 105 -195 105
c-101 0 -196 -69 -219 -178z" />
    <glyph glyph-name="Gcircumflex" unicode="&#x11c;" horiz-adv-x="806" 
d="M326 788l-33 38l142 127l142 -127l-34 -38l-108 98zM109 363c0 -175 140 -327 331 -327c78 0 155 29 214 80v142h-214v54h268v-220c-71 -70 -167 -110 -267 -110c-228 0 -386 181 -386 380c0 228 181 386 380 386c112 0 208 -44 276 -113l-38 -38c-58 59 -140 97 -238 97
c-174 0 -326 -140 -326 -331z" />
    <glyph glyph-name="gcircumflex" unicode="&#x11d;" horiz-adv-x="695" 
d="M242 581l-34 37l142 128l142 -128l-33 -37l-109 97zM525 507h50v-381v-50c-3 -166 -134 -276 -274 -276h-72v50h72c115 0 222 90 224 226c-36 -53 -95 -90 -180 -90c-142 0 -275 112 -275 280c0 142 112 275 280 275c77 0 136 -33 175 -90v56zM525 120v287
c-43 53 -108 84 -175 84c-138 0 -230 -109 -230 -225c0 -138 109 -230 225 -230c77 0 139 34 180 84z" />
    <glyph glyph-name="Gbreve" unicode="&#x11e;" horiz-adv-x="806" 
d="M298 903l50 8c3 -18 16 -70 90 -73h2c23 0 69 13 82 74l49 -8c-19 -94 -91 -116 -130 -116c-25 0 -126 8 -143 115zM109 363c0 -175 140 -327 331 -327c78 0 155 29 214 80v142h-214v54h268v-220c-71 -70 -167 -110 -267 -110c-228 0 -386 181 -386 380
c0 228 181 386 380 386c112 0 208 -44 276 -113l-38 -38c-58 59 -140 97 -238 97c-174 0 -326 -140 -326 -331z" />
    <glyph glyph-name="gbreve" unicode="&#x11f;" horiz-adv-x="695" 
d="M214 696l49 8c3 -19 17 -71 91 -73h2c23 0 69 13 81 73l50 -8c-19 -93 -91 -115 -130 -115c-25 0 -126 7 -143 115zM525 507h50v-381v-50c-3 -166 -134 -276 -274 -276h-72v50h72c115 0 222 90 224 226c-36 -53 -95 -90 -180 -90c-142 0 -275 112 -275 280
c0 142 112 275 280 275c77 0 136 -33 175 -90v56zM525 120v287c-43 53 -108 84 -175 84c-138 0 -230 -109 -230 -225c0 -138 109 -230 225 -230c77 0 139 34 180 84z" />
    <glyph glyph-name="Gdotaccent" unicode="&#x120;" horiz-adv-x="806" 
d="M387 836c0 27 21 48 48 48c26 0 48 -21 48 -48c0 -26 -22 -48 -48 -48c-27 0 -48 22 -48 48zM109 363c0 -175 140 -327 331 -327c78 0 155 29 214 80v142h-214v54h268v-220c-71 -70 -167 -110 -267 -110c-228 0 -386 181 -386 380c0 228 181 386 380 386
c112 0 208 -44 276 -113l-38 -38c-58 59 -140 97 -238 97c-174 0 -326 -140 -326 -331z" />
    <glyph glyph-name="gdotaccent" unicode="&#x121;" horiz-adv-x="695" 
d="M302 629c0 26 22 48 48 48c27 0 48 -22 48 -48s-21 -48 -48 -48c-26 0 -48 22 -48 48zM525 507h50v-381v-50c-3 -166 -134 -276 -274 -276h-72v50h72c115 0 222 90 224 226c-36 -53 -95 -90 -180 -90c-142 0 -275 112 -275 280c0 142 112 275 280 275
c77 0 136 -33 175 -90v56zM525 120v287c-43 53 -108 84 -175 84c-138 0 -230 -109 -230 -225c0 -138 109 -230 225 -230c77 0 139 34 180 84z" />
    <glyph glyph-name="Gcommaaccent" unicode="&#x122;" horiz-adv-x="806" 
d="M443 -58l60 -21l-82 -203l-42 14zM109 363c0 -175 140 -327 331 -327c78 0 155 29 214 80v142h-214v54h268v-220c-71 -70 -167 -110 -267 -110c-228 0 -386 181 -386 380c0 228 181 386 380 386c112 0 208 -44 276 -113l-38 -38c-58 59 -140 97 -238 97
c-174 0 -326 -140 -326 -331z" />
    <glyph glyph-name="Hcircumflex" unicode="&#x124;" horiz-adv-x="734" 
d="M259 788l-34 38l142 127l142 -127l-33 -38l-109 98zM120 0v728h54v-316h386v316h54v-728h-54v358h-386v-358h-54z" />
    <glyph glyph-name="hcircumflex" unicode="&#x125;" horiz-adv-x="657" 
d="M259 788l-34 38l142 127l142 -127l-33 -38l-109 98zM487 0v358c0 66 -52 133 -137 133c-77 0 -139 -34 -180 -84v-407h-50v800h50v-346c37 52 95 87 180 87c118 0 187 -92 187 -182v-359h-50z" />
    <glyph glyph-name="Itilde" unicode="&#x128;" horiz-adv-x="294" 
d="M91 843c-16 0 -31 -17 -40 -34l-44 23c5 9 33 60 83 60c55 0 83 -54 114 -54c12 0 24 9 39 34l44 -24c-18 -28 -37 -60 -89 -60c-49 0 -76 55 -107 55zM174 0h-54v728h54v-728z" />
    <glyph glyph-name="itilde" unicode="&#x129;" horiz-adv-x="336" 
d="M113 635c-16 0 -31 -16 -40 -34l-44 24c5 9 33 60 83 60c55 0 83 -55 114 -55c12 0 24 9 39 35l44 -24c-18 -28 -37 -60 -89 -60c-49 0 -76 54 -107 54zM194 0h-50v524h50v-524z" />
    <glyph glyph-name="Imacron" unicode="&#x12a;" horiz-adv-x="294" 
d="M272 838v-50h-250v50h250zM174 0h-54v728h54v-728z" />
    <glyph glyph-name="imacron" unicode="&#x12b;" horiz-adv-x="336" 
d="M294 631v-50h-250v50h250zM194 0h-50v524h50v-524z" />
    <glyph glyph-name="Ibreve" unicode="&#x12c;" horiz-adv-x="294" 
d="M11 903l49 8c3 -18 16 -70 91 -73h1c23 0 70 13 82 74l49 -8c-19 -94 -91 -116 -129 -116c-26 0 -126 8 -143 115zM174 0h-54v728h54v-728z" />
    <glyph glyph-name="ibreve" unicode="&#x12d;" horiz-adv-x="336" 
d="M33 696l49 8c3 -19 16 -71 91 -73h1c23 0 70 13 82 73l49 -8c-19 -93 -91 -115 -129 -115c-26 0 -126 7 -143 115zM194 0h-50v524h50v-524z" />
    <glyph glyph-name="Iogonek" unicode="&#x12e;" horiz-adv-x="294" 
d="M124 6h46c-34 -25 -70 -46 -70 -85c0 -33 28 -58 60 -58c18 0 32 5 52 12l16 -45c-20 -7 -54 -16 -88 -16c-32 0 -88 26 -88 80c0 49 22 81 72 112zM174 0h-54v728h54v-728z" />
    <glyph glyph-name="iogonek" unicode="&#x12f;" horiz-adv-x="336" 
d="M146 6h46c-34 -25 -70 -46 -70 -85c0 -33 28 -58 60 -58c18 0 32 5 52 12l16 -45c-20 -7 -54 -16 -88 -16c-32 0 -88 26 -88 80c0 49 22 81 72 112zM194 0h-50v524h50v-524zM120 658c0 26 22 48 48 48s48 -22 48 -48s-22 -48 -48 -48s-48 22 -48 48z" />
    <glyph glyph-name="Idotaccent" unicode="&#x130;" horiz-adv-x="294" 
d="M99 836c0 27 22 48 48 48s48 -21 48 -48c0 -26 -22 -48 -48 -48s-48 22 -48 48zM174 0h-54v728h54v-728z" />
    <glyph glyph-name="dotlessi" unicode="&#x131;" horiz-adv-x="336" 
d="M194 0h-50v524h50v-524z" />
    <glyph glyph-name="Jcircumflex" unicode="&#x134;" horiz-adv-x="585" 
d="M330 788l-33 38l141 127l142 -127l-33 -38l-109 98zM53 118c15 -74 78 -145 180 -145c85 0 178 65 178 181v574h54v-270c0 -238 1 -267 1 -297c0 -152 -118 -242 -232 -242c-132 0 -214 92 -234 190z" />
    <glyph glyph-name="jcircumflex" unicode="&#x135;" horiz-adv-x="378" 
d="M102 564l-33 38l142 127l142 -127l-33 -38l-109 98zM120 -164c40 40 66 97 66 164v524h50v-523v-1c0 -82 -32 -151 -81 -199z" />
    <glyph glyph-name="Kcommaaccent" unicode="&#x136;" horiz-adv-x="691" 
d="M595 -57l60 -21l-82 -204l-42 15zM266 386l365 -365l-38 -38l-403 403l356 356l38 -38zM174 0h-54v728h54v-728z" />
    <glyph glyph-name="kcommaaccent" unicode="&#x137;" horiz-adv-x="570" 
d="M467 -56l59 -21l-81 -203l-42 14zM170 0h-50v800h50v-800zM499 508l-244 -244l245 -245l-35 -35l-280 280l279 279z" />
    <glyph glyph-name="Lacute" unicode="&#x139;" horiz-adv-x="593" 
d="M309 935l-163 -147l-31 32l150 160zM120 0v728h54v-674h384v-54h-438z" />
    <glyph glyph-name="lacute" unicode="&#x13a;" horiz-adv-x="290" 
d="M308 987l-163 -147l-31 32l150 160zM170 0h-50v800h50v-800z" />
    <glyph glyph-name="Lcommaaccent" unicode="&#x13b;" horiz-adv-x="593" 
d="M341 -40l60 -21l-82 -203l-42 14zM120 0v728h54v-674h384v-54h-438z" />
    <glyph glyph-name="lcommaaccent" unicode="&#x13c;" horiz-adv-x="290" 
d="M147 -40l60 -21l-82 -203l-42 14zM170 0h-50v800h50v-800z" />
    <glyph glyph-name="Lcaron" unicode="&#x13d;" horiz-adv-x="756" 
d="M682 748l60 -21l-82 -203l-42 14zM120 0v728h54v-674h384v-54h-438z" />
    <glyph glyph-name="lcaron" unicode="&#x13e;" horiz-adv-x="453" 
d="M269 800l60 -21l-82 -203l-42 14zM170 0h-50v800h50v-800z" />
    <glyph glyph-name="Nacute" unicode="&#x143;" horiz-adv-x="821" 
d="M584 939l-164 -147l-31 32l150 160zM120 752l527 -628v604h54v-752l-527 628v-604h-54v752z" />
    <glyph glyph-name="nacute" unicode="&#x144;" horiz-adv-x="707" 
d="M517 728l-163 -147l-31 32l150 160zM401 541c117 0 186 -92 186 -182v-359h-50v358c0 66 -51 133 -137 133c-138 0 -230 -108 -230 -225v-266h-50v524h50v-133c14 64 130 150 231 150z" />
    <glyph glyph-name="Ncommaaccent" unicode="&#x145;" horiz-adv-x="821" 
d="M703 -64l60 -21l-82 -203l-42 14zM120 752l527 -628v604h54v-752l-527 628v-604h-54v752z" />
    <glyph glyph-name="ncommaaccent" unicode="&#x146;" horiz-adv-x="707" 
d="M356 -40l59 -21l-81 -203l-42 14zM401 541c117 0 186 -92 186 -182v-359h-50v358c0 66 -51 133 -137 133c-138 0 -230 -108 -230 -225v-266h-50v524h50v-133c14 64 130 150 231 150z" />
    <glyph glyph-name="Ncaron" unicode="&#x147;" horiz-adv-x="821" 
d="M529 957l33 -38l-142 -127l-142 127l34 38l108 -98zM120 752l527 -628v604h54v-752l-527 628v-604h-54v752z" />
    <glyph glyph-name="ncaron" unicode="&#x148;" horiz-adv-x="707" 
d="M462 746l34 -38l-142 -127l-142 127l33 38l109 -98zM401 541c117 0 186 -92 186 -182v-359h-50v358c0 66 -51 133 -137 133c-138 0 -230 -108 -230 -225v-266h-50v524h50v-133c14 64 130 150 231 150z" />
    <glyph glyph-name="Omacron" unicode="&#x14c;" horiz-adv-x="876" 
d="M560 838v-50h-250v50h250zM55 362c0 228 181 386 380 386c228 0 386 -181 386 -380c0 -228 -181 -386 -380 -386c-228 0 -386 181 -386 380zM767 365c0 180 -141 329 -332 329c-167 0 -326 -132 -326 -331c0 -167 132 -327 331 -327c168 0 327 132 327 329z" />
    <glyph glyph-name="omacron" unicode="&#x14d;" 
d="M469 631v-50h-250v50h250zM70 261c0 168 132 280 274 280c168 0 280 -132 280 -274c0 -168 -132 -280 -274 -280c-168 0 -280 132 -280 274zM574 266c0 117 -92 225 -229 225c-117 0 -225 -92 -225 -229c0 -117 92 -225 229 -225c117 0 225 92 225 229z" />
    <glyph glyph-name="Obreve" unicode="&#x14e;" horiz-adv-x="876" 
d="M299 903l49 8c3 -18 16 -70 90 -73h2c23 0 69 13 82 74l49 -8c-19 -94 -91 -116 -130 -116c-25 0 -125 8 -142 115zM55 362c0 228 181 386 380 386c228 0 386 -181 386 -380c0 -228 -181 -386 -380 -386c-228 0 -386 181 -386 380zM767 365c0 180 -141 329 -332 329
c-167 0 -326 -132 -326 -331c0 -167 132 -327 331 -327c168 0 327 132 327 329z" />
    <glyph glyph-name="obreve" unicode="&#x14f;" 
d="M208 696l49 8c3 -19 17 -71 91 -73h2c23 0 69 13 81 73l49 -8c-19 -93 -91 -115 -129 -115c-26 0 -126 7 -143 115zM70 261c0 168 132 280 274 280c168 0 280 -132 280 -274c0 -168 -132 -280 -274 -280c-168 0 -280 132 -280 274zM574 266c0 117 -92 225 -229 225
c-117 0 -225 -92 -225 -229c0 -117 92 -225 229 -225c117 0 225 92 225 229z" />
    <glyph glyph-name="Ohungarumlaut" unicode="&#x150;" horiz-adv-x="876" 
d="M499 935l-163 -147l-31 32l150 160zM697 935l-163 -147l-31 32l150 160zM55 362c0 228 181 386 380 386c228 0 386 -181 386 -380c0 -228 -181 -386 -380 -386c-228 0 -386 181 -386 380zM767 365c0 180 -141 329 -332 329c-167 0 -326 -132 -326 -331
c0 -167 132 -327 331 -327c168 0 327 132 327 329z" />
    <glyph glyph-name="ohungarumlaut" unicode="&#x151;" 
d="M408 728l-163 -147l-31 32l150 160zM606 728l-163 -147l-31 32l150 160zM70 261c0 168 132 280 274 280c168 0 280 -132 280 -274c0 -168 -132 -280 -274 -280c-168 0 -280 132 -280 274zM574 266c0 117 -92 225 -229 225c-117 0 -225 -92 -225 -229
c0 -117 92 -225 229 -225c117 0 225 92 225 229z" />
    <glyph glyph-name="Racute" unicode="&#x154;" horiz-adv-x="660" 
d="M395 935l-163 -147l-31 32l150 160zM575 496c0 -126 -92 -229 -199 -229c-25 0 -57 6 -63 8l254 -255l-38 -38l-330 330h146c85 0 176 67 176 184c0 84 -64 178 -178 178h-169v-674h-54v728h223c147 0 232 -119 232 -232z" />
    <glyph glyph-name="racute" unicode="&#x155;" horiz-adv-x="441" 
d="M424 728l-163 -147l-31 32l150 160zM170 391c14 64 130 150 231 150v-50c-138 0 -231 -108 -231 -225v-266h-50v524h50v-133z" />
    <glyph glyph-name="Rcommaaccent" unicode="&#x156;" horiz-adv-x="660" 
d="M531 -58l60 -21l-82 -203l-42 14zM575 496c0 -126 -92 -229 -199 -229c-25 0 -57 6 -63 8l254 -255l-38 -38l-330 330h146c85 0 176 67 176 184c0 84 -64 178 -178 178h-169v-674h-54v728h223c147 0 232 -119 232 -232z" />
    <glyph glyph-name="rcommaaccent" unicode="&#x157;" horiz-adv-x="441" 
d="M147 -40l60 -21l-82 -203l-42 14zM170 391c14 64 130 150 231 150v-50c-138 0 -231 -108 -231 -225v-266h-50v524h50v-133z" />
    <glyph glyph-name="Rcaron" unicode="&#x158;" horiz-adv-x="660" 
d="M340 953l34 -37l-142 -128l-142 128l33 37l109 -97zM575 496c0 -126 -92 -229 -199 -229c-25 0 -57 6 -63 8l254 -255l-38 -38l-330 330h146c85 0 176 67 176 184c0 84 -64 178 -178 178h-169v-674h-54v728h223c147 0 232 -119 232 -232z" />
    <glyph glyph-name="rcaron" unicode="&#x159;" horiz-adv-x="441" 
d="M369 746l34 -38l-142 -127l-142 127l33 38l109 -98zM170 391c14 64 130 150 231 150v-50c-138 0 -231 -108 -231 -225v-266h-50v524h50v-133z" />
    <glyph glyph-name="Sacute" unicode="&#x15a;" horiz-adv-x="593" 
d="M518 205c0 -106 -86 -227 -237 -227c-76 0 -211 37 -226 230l54 3c12 -150 109 -179 173 -179c115 0 182 93 182 173c0 65 -30 107 -196 150c-93 25 -181 76 -181 187c0 144 116 199 197 199c123 0 200 -90 205 -199l-54 -3c-4 82 -60 148 -150 148
c-65 0 -144 -43 -144 -143c0 -82 65 -117 141 -136c194 -51 236 -115 236 -203zM448 935l-164 -147l-31 32l150 160z" />
    <glyph glyph-name="sacute" unicode="&#x15b;" horiz-adv-x="534" 
d="M467 729l-163 -147l-31 32l150 160zM215 389c0 -80 181 -103 181 -220c0 -9 -2 -15 -5 -25c-40 -134 -291 -154 -318 -156l-3 50c150 10 276 70 276 133c0 76 -181 104 -181 218v2c0 8 0 11 2 18c32 125 252 131 265 133l3 -50c-15 0 -220 -16 -220 -103z" />
    <glyph glyph-name="Scircumflex" unicode="&#x15c;" horiz-adv-x="593" 
d="M518 205c0 -106 -86 -227 -237 -227c-76 0 -211 37 -226 230l54 3c12 -150 109 -179 173 -179c115 0 182 93 182 173c0 65 -30 107 -196 150c-93 25 -181 76 -181 187c0 144 116 199 197 199c123 0 200 -90 205 -199l-54 -3c-4 82 -60 148 -150 148
c-65 0 -144 -43 -144 -143c0 -82 65 -117 141 -136c194 -51 236 -115 236 -203zM176 788l-34 38l142 127l142 -127l-33 -38l-109 98z" />
    <glyph glyph-name="scircumflex" unicode="&#x15d;" horiz-adv-x="534" 
d="M220 582l-34 37l142 128l142 -128l-33 -37l-109 97zM215 389c0 -80 181 -103 181 -220c0 -9 -2 -15 -5 -25c-40 -134 -291 -154 -318 -156l-3 50c150 10 276 70 276 133c0 76 -181 104 -181 218v2c0 8 0 11 2 18c32 125 252 131 265 133l3 -50c-15 0 -220 -16 -220 -103z
" />
    <glyph glyph-name="Scedilla" unicode="&#x15e;" horiz-adv-x="593" 
d="M306 -15l-8 -14l-22 -39c5 5 15 5 20 5c9 0 16 -1 24 -5c26 -11 43 -39 43 -69c0 -46 -32 -86 -80 -86c-46 0 -86 32 -86 83h43c0 -19 12 -40 41 -40c17 0 39 12 39 41c0 17 -12 39 -41 39c-12 0 -26 -6 -34 -20l-37 21l40 70l8 14h50zM518 205
c0 -106 -86 -227 -237 -227c-76 0 -211 37 -226 230l54 3c12 -150 109 -179 173 -179c115 0 182 93 182 173c0 65 -30 107 -196 150c-93 25 -181 76 -181 187c0 144 116 199 197 199c123 0 200 -90 205 -199l-54 -3c-4 82 -60 148 -150 148c-65 0 -144 -43 -144 -143
c0 -82 65 -117 141 -136c194 -51 236 -115 236 -203z" />
    <glyph glyph-name="scedilla" unicode="&#x15f;" horiz-adv-x="534" 
d="M98 -5l-8 -14l-22 -39c5 5 15 5 20 5c9 0 17 -1 25 -5c25 -11 42 -39 42 -69c0 -46 -32 -86 -80 -86c-46 0 -86 32 -86 83h43c0 -19 12 -40 42 -40c16 0 38 12 38 41c0 17 -12 39 -41 39c-12 0 -26 -6 -34 -20l-37 21l40 70l8 14h50zM215 389c0 -80 181 -103 181 -220
c0 -9 -2 -15 -5 -25c-40 -134 -291 -154 -318 -156l-3 50c150 10 276 70 276 133c0 76 -181 104 -181 218v2c0 8 0 11 2 18c32 125 252 131 265 133l3 -50c-15 0 -220 -16 -220 -103z" />
    <glyph glyph-name="Scaron" unicode="&#x160;" horiz-adv-x="593" 
d="M518 205c0 -106 -86 -227 -237 -227c-76 0 -211 37 -226 230l54 3c12 -150 109 -179 173 -179c115 0 182 93 182 173c0 65 -30 107 -196 150c-93 25 -181 76 -181 187c0 144 116 199 197 199c123 0 200 -90 205 -199l-54 -3c-4 82 -60 148 -150 148
c-65 0 -144 -43 -144 -143c0 -82 65 -117 141 -136c194 -51 236 -115 236 -203zM393 953l33 -37l-142 -128l-142 128l34 37l108 -97z" />
    <glyph glyph-name="scaron" unicode="&#x161;" horiz-adv-x="534" 
d="M429 747l33 -38l-142 -127l-142 127l34 38l108 -98zM215 389c0 -80 181 -103 181 -220c0 -9 -2 -15 -5 -25c-40 -134 -291 -154 -318 -156l-3 50c150 10 276 70 276 133c0 76 -181 104 -181 218v2c0 8 0 11 2 18c32 125 252 131 265 133l3 -50c-15 0 -220 -16 -220 -103z
" />
    <glyph glyph-name="Tcommaaccent" unicode="&#x162;" horiz-adv-x="590" 
d="M322 7l-8 -14l-22 -39c5 4 15 5 20 5c10 0 17 -1 25 -5c25 -11 42 -39 42 -70c0 -45 -32 -85 -80 -85c-46 0 -86 32 -86 83h44c0 -20 11 -40 41 -40c16 0 38 12 38 41c0 17 -12 39 -41 39c-12 0 -26 -7 -33 -20l-38 21l40 70l8 14h50zM324 0h-54v674h-250v54h550v-54
h-246v-674z" />
    <glyph glyph-name="tcommaaccent" unicode="&#x163;" horiz-adv-x="466" 
d="M333 -4l-8 -14l-22 -39c5 4 15 5 20 5c9 0 16 -1 24 -5c26 -11 43 -39 43 -70c0 -45 -32 -85 -80 -85c-46 0 -86 32 -86 83h43c0 -20 12 -40 41 -40c17 0 39 12 39 41c0 16 -12 38 -41 38c-12 0 -26 -6 -34 -19l-37 21l40 70l8 14h50zM308 -11c-117 0 -188 92 -188 182
v303h-50v50h50v148h50v-148h236v-50h-236v-302c0 -66 52 -133 137 -133c24 0 48 7 69 19l25 -43c-28 -17 -61 -26 -93 -26z" />
    <glyph glyph-name="Tcaron" unicode="&#x164;" horiz-adv-x="590" 
d="M404 953l33 -37l-142 -128l-142 128l33 37l109 -97zM324 0h-54v674h-250v54h550v-54h-246v-674z" />
    <glyph glyph-name="tcaron" unicode="&#x165;" horiz-adv-x="629" 
d="M269 672l60 -21l-82 -203l-42 14zM308 -11c-117 0 -188 92 -188 182v303h-50v50h50v148h50v-148h236v-50h-236v-302c0 -66 52 -133 137 -133c24 0 48 7 69 19l25 -43c-28 -17 -61 -26 -93 -26z" />
    <glyph glyph-name="Utilde" unicode="&#x168;" horiz-adv-x="790" 
d="M339 843c-16 0 -31 -17 -40 -34l-44 23c5 9 33 60 83 60c55 0 83 -54 114 -54c12 0 24 9 39 34l44 -24c-18 -28 -37 -60 -89 -60c-49 0 -76 55 -107 55zM670 263c0 -172 -137 -278 -272 -278c-172 0 -278 136 -278 271v472h54v-470c0 -109 85 -219 224 -219
c108 0 218 86 218 224v465h54v-465z" />
    <glyph glyph-name="utilde" unicode="&#x169;" horiz-adv-x="707" 
d="M298 635c-16 0 -31 -16 -41 -34l-44 24c5 9 34 60 84 60c55 0 83 -55 113 -55c12 0 25 9 40 35l44 -24c-19 -28 -38 -60 -89 -60c-50 0 -76 54 -107 54zM306 -13c-117 0 -186 92 -186 182v355h50v-354c0 -66 51 -133 137 -133c138 0 230 108 230 225v262h50v-524h-50v137
c-14 -64 -130 -150 -231 -150z" />
    <glyph glyph-name="Umacron" unicode="&#x16a;" horiz-adv-x="790" 
d="M520 838v-50h-250v50h250zM670 263c0 -172 -137 -278 -272 -278c-172 0 -278 136 -278 271v472h54v-470c0 -109 85 -219 224 -219c108 0 218 86 218 224v465h54v-465z" />
    <glyph glyph-name="umacron" unicode="&#x16b;" horiz-adv-x="707" 
d="M478 631v-50h-250v50h250zM306 -13c-117 0 -186 92 -186 182v355h50v-354c0 -66 51 -133 137 -133c138 0 230 108 230 225v262h50v-524h-50v137c-14 -64 -130 -150 -231 -150z" />
    <glyph glyph-name="Ubreve" unicode="&#x16c;" horiz-adv-x="790" 
d="M259 903l49 8c3 -18 16 -70 91 -73h1c23 0 70 13 82 74l49 -8c-19 -94 -91 -116 -129 -116c-26 0 -126 8 -143 115zM670 263c0 -172 -137 -278 -272 -278c-172 0 -278 136 -278 271v472h54v-470c0 -109 85 -219 224 -219c108 0 218 86 218 224v465h54v-465z" />
    <glyph glyph-name="ubreve" unicode="&#x16d;" horiz-adv-x="707" 
d="M217 696l49 8c3 -19 17 -71 91 -73h2c23 0 69 13 81 73l50 -8c-19 -93 -91 -115 -130 -115c-25 0 -126 7 -143 115zM306 -13c-117 0 -186 92 -186 182v355h50v-354c0 -66 51 -133 137 -133c138 0 230 108 230 225v262h50v-524h-50v137c-14 -64 -130 -150 -231 -150z" />
    <glyph glyph-name="Uring" unicode="&#x16e;" horiz-adv-x="790" 
d="M299 881c0 53 37 99 93 99c53 0 99 -37 99 -93c0 -52 -37 -99 -93 -99c-53 0 -99 38 -99 93zM441 886c0 19 -14 44 -48 44c-19 0 -44 -14 -44 -47c0 -19 14 -45 48 -45c19 0 44 14 44 48zM670 263c0 -172 -137 -278 -272 -278c-172 0 -278 136 -278 271v472h54v-470
c0 -109 85 -219 224 -219c108 0 218 86 218 224v465h54v-465z" />
    <glyph glyph-name="uring" unicode="&#x16f;" horiz-adv-x="707" 
d="M257 674c0 53 37 99 93 99c53 0 99 -37 99 -93c0 -52 -37 -99 -93 -99c-52 0 -99 37 -99 93zM399 679c0 19 -14 44 -47 44c-19 0 -45 -14 -45 -48c0 -19 14 -44 48 -44c19 0 44 14 44 48zM306 -13c-117 0 -186 92 -186 182v355h50v-354c0 -66 51 -133 137 -133
c138 0 230 108 230 225v262h50v-524h-50v137c-14 -64 -130 -150 -231 -150z" />
    <glyph glyph-name="Uhungarumlaut" unicode="&#x170;" horiz-adv-x="790" 
d="M459 935l-163 -147l-31 32l150 160zM657 935l-163 -147l-31 32l150 160zM670 263c0 -172 -137 -278 -272 -278c-172 0 -278 136 -278 271v472h54v-470c0 -109 85 -219 224 -219c108 0 218 86 218 224v465h54v-465z" />
    <glyph glyph-name="uhungarumlaut" unicode="&#x171;" horiz-adv-x="707" 
d="M417 728l-163 -147l-31 32l150 160zM616 728l-164 -147l-31 32l151 160zM306 -13c-117 0 -186 92 -186 182v355h50v-354c0 -66 51 -133 137 -133c138 0 230 108 230 225v262h50v-524h-50v137c-14 -64 -130 -150 -231 -150z" />
    <glyph glyph-name="Uogonek" unicode="&#x172;" horiz-adv-x="790" 
d="M375 -8h47c-35 -25 -70 -46 -70 -85c0 -33 28 -58 60 -58c17 0 32 5 51 12l16 -45c-19 -7 -54 -16 -88 -16c-32 0 -88 26 -88 80c0 49 23 81 72 112zM670 263c0 -172 -137 -278 -272 -278c-172 0 -278 136 -278 271v472h54v-470c0 -109 85 -219 224 -219
c108 0 218 86 218 224v465h54v-465z" />
    <glyph glyph-name="uogonek" unicode="&#x173;" horiz-adv-x="707" 
d="M538 -7h47c-35 -25 -70 -46 -70 -85c0 -33 28 -58 60 -58c17 0 32 5 51 12l16 -45c-19 -7 -54 -16 -88 -16c-32 0 -88 26 -88 80c0 49 23 81 72 112zM306 -13c-117 0 -186 92 -186 182v355h50v-354c0 -66 51 -133 137 -133c138 0 230 108 230 225v262h50v-524h-50v137
c-14 -64 -130 -150 -231 -150z" />
    <glyph glyph-name="Wcircumflex" unicode="&#x174;" horiz-adv-x="1090" 
d="M443 788l-33 38l142 127l142 -127l-34 -38l-108 98zM390 715l49 23l296 -636l297 636l49 -23l-346 -740l-190 407l-190 -407l-345 740l49 23l296 -636l161 344z" />
    <glyph glyph-name="wcircumflex" unicode="&#x175;" horiz-adv-x="885" 
d="M342 581l-34 37l142 128l142 -128l-33 -37l-109 98zM379 540l208 -446l208 446l45 -22l-253 -542l-145 311l-144 -309l-253 542l45 21l208 -445l117 250l-81 173z" />
    <glyph glyph-name="Ycircumflex" unicode="&#x176;" horiz-adv-x="595" 
d="M194 788l-34 38l142 127l142 -127l-33 -38l-109 98zM324 0h-54v221l-230 494l49 23l208 -448l209 448l49 -23l-231 -495v-220z" />
    <glyph glyph-name="ycircumflex" unicode="&#x177;" horiz-adv-x="596" 
d="M194 581l-34 37l142 128l142 -128l-33 -37l-109 98zM163 -193l107 230l-225 483l45 21l208 -445l208 445l45 -21l-343 -735z" />
    <glyph glyph-name="Ydieresis" unicode="&#x178;" horiz-adv-x="595" 
d="M152 836c0 27 21 48 48 48c26 0 48 -21 48 -48c0 -26 -22 -48 -48 -48c-27 0 -48 22 -48 48zM349 836c0 27 21 48 48 48c26 0 48 -21 48 -48c0 -26 -22 -48 -48 -48c-27 0 -48 22 -48 48zM324 0h-54v221l-230 494l49 23l208 -448l209 448l49 -23l-231 -495v-220z" />
    <glyph glyph-name="Zacute" unicode="&#x179;" horiz-adv-x="740" 
d="M562 935l-163 -147l-31 32l150 160zM136 54h584v-54h-700l566 674h-490v54h605z" />
    <glyph glyph-name="zacute" unicode="&#x17a;" horiz-adv-x="624" 
d="M488 728l-163 -147l-31 32l150 160zM157 50h417v-50h-524l398 474h-354v50h461z" />
    <glyph glyph-name="Zdotaccent" unicode="&#x17b;" horiz-adv-x="740" 
d="M351 836c0 27 21 48 48 48c26 0 48 -21 48 -48c0 -26 -22 -48 -48 -48c-27 0 -48 22 -48 48zM136 54h584v-54h-700l566 674h-490v54h605z" />
    <glyph glyph-name="zdotaccent" unicode="&#x17c;" horiz-adv-x="624" 
d="M277 629c0 26 21 48 48 48c26 0 48 -22 48 -48s-22 -48 -48 -48c-27 0 -48 22 -48 48zM157 50h417v-50h-524l398 474h-354v50h461z" />
    <glyph glyph-name="Zcaron" unicode="&#x17d;" horiz-adv-x="740" 
d="M507 953l34 -37l-142 -128l-142 128l33 37l109 -97zM136 54h584v-54h-700l566 674h-490v54h605z" />
    <glyph glyph-name="zcaron" unicode="&#x17e;" horiz-adv-x="624" 
d="M433 746l34 -38l-142 -127l-142 127l33 38l109 -98zM157 50h417v-50h-524l398 474h-354v50h461z" />
    <glyph glyph-name="circumflex" unicode="&#x2c6;" horiz-adv-x="384" 
d="M84 581l-34 38l142 127l142 -127l-33 -38l-109 98z" />
    <glyph glyph-name="caron" unicode="&#x2c7;" horiz-adv-x="384" 
d="M301 748l33 -37l-142 -128l-142 128l34 37l108 -97z" />
    <glyph glyph-name="macronmodifier" unicode="&#x2c9;" horiz-adv-x="350" 
d="M300 631v-50h-250v50h250z" />
    <glyph glyph-name="breve" unicode="&#x2d8;" horiz-adv-x="373" 
d="M50 696l50 8c3 -18 16 -70 90 -73h2c23 0 69 13 82 74l49 -8c-19 -94 -91 -116 -130 -116c-25 0 -125 8 -143 115z" />
    <glyph glyph-name="dotaccent" unicode="&#x2d9;" horiz-adv-x="196" 
d="M50 629c0 27 22 48 48 48s48 -21 48 -48c0 -26 -22 -48 -48 -48s-48 22 -48 48z" />
    <glyph glyph-name="ring" unicode="&#x2da;" horiz-adv-x="292" 
d="M50 674c0 53 37 100 93 100c52 0 99 -38 99 -93c0 -53 -37 -100 -93 -100c-53 0 -99 38 -99 93zM192 679c0 19 -14 45 -48 45c-19 0 -44 -14 -44 -48c0 -19 14 -45 48 -45c19 0 44 14 44 48z" />
    <glyph glyph-name="ogonek" unicode="&#x2db;" horiz-adv-x="376" 
d="M172 0h47c-35 -25 -70 -46 -70 -85c0 -33 28 -58 60 -58c17 0 32 5 51 12l16 -45c-19 -7 -54 -16 -88 -16c-32 0 -88 26 -88 80c0 49 23 81 72 112z" />
    <glyph glyph-name="tilde" unicode="&#x2dc;" horiz-adv-x="380" 
d="M135 636c-17 0 -31 -17 -41 -34l-44 24c5 8 33 60 84 60c54 0 83 -55 113 -55c12 0 25 9 39 34l44 -24c-18 -28 -37 -60 -89 -60c-49 0 -75 55 -106 55z" />
    <glyph glyph-name="hungarumlaut" unicode="&#x2dd;" horiz-adv-x="532" 
d="M294 728l-163 -147l-31 32l150 160zM492 728l-163 -147l-31 32l150 160z" />
    <glyph glyph-name="figuredash" unicode="&#x2012;" horiz-adv-x="333" 
d="M333 288v-50h-333v50h333z" />
    <glyph glyph-name="endash" unicode="&#x2013;" horiz-adv-x="500" 
d="M500 288v-50h-500v50h500z" />
    <glyph glyph-name="emdash" unicode="&#x2014;" horiz-adv-x="1000" 
d="M1000 288v-50h-1000v50h1000z" />
    <glyph glyph-name="quoteleft" unicode="&#x2018;" horiz-adv-x="224" 
d="M100 810l64 -210l-42 -14l-82 203z" />
    <glyph glyph-name="quoteright" unicode="&#x2019;" horiz-adv-x="223" 
d="M124 810l60 -21l-82 -203l-42 14z" />
    <glyph glyph-name="quotesinglbase" unicode="&#x201a;" horiz-adv-x="244" 
d="M124 100l60 -21l-82 -203l-42 14z" />
    <glyph glyph-name="quotedblleft" unicode="&#x201c;" horiz-adv-x="367" 
d="M99 810l64 -210l-42 -14l-81 203zM243 810l64 -210l-42 -14l-82 203z" />
    <glyph glyph-name="quotedblright" unicode="&#x201d;" horiz-adv-x="367" 
d="M268 810l59 -21l-81 -203l-42 14zM124 810l60 -21l-82 -203l-42 14z" />
    <glyph glyph-name="quotedblbase" unicode="&#x201e;" horiz-adv-x="387" 
d="M268 100l59 -21l-81 -203l-42 14zM124 100l60 -21l-82 -203l-42 14z" />
    <glyph glyph-name="dagger" unicode="&#x2020;" horiz-adv-x="408" 
d="M348 524v-50h-114l-5 -588h-50l-5 588h-114v50h113l-2 204h66l-2 -204h113z" />
    <glyph glyph-name="daggerdbl" unicode="&#x2021;" horiz-adv-x="468" 
d="M378 524v-50h-114v-334h114v-50h-113l2 -204h-66l2 204h-113v50h114v334h-114v50h113l-2 204h66l-2 -204h113z" />
    <glyph glyph-name="ellipsis" unicode="&#x2026;" horiz-adv-x="1000" 
d="M120 44c0 26 21 48 48 48c26 0 48 -22 48 -48s-22 -48 -48 -48c-27 0 -48 22 -48 48zM452 44c0 26 22 48 48 48c27 0 48 -22 48 -48s-21 -48 -48 -48c-26 0 -48 22 -48 48zM786 44c0 26 21 48 48 48c26 0 48 -22 48 -48s-22 -48 -48 -48c-27 0 -48 22 -48 48z" />
    <glyph glyph-name="perthousand" unicode="&#x2030;" horiz-adv-x="811" 
d="M761 99c0 -74 -56 -107 -99 -107c-74 0 -107 56 -107 99c0 74 56 107 99 107c74 0 107 -56 107 -99zM605 92c0 -21 16 -50 56 -50c21 0 50 16 50 55c0 22 -16 51 -55 51c-22 0 -51 -16 -51 -56zM519 99c0 -74 -56 -107 -99 -107c-74 0 -107 56 -107 99
c0 74 56 107 99 107c74 0 107 -56 107 -99zM363 92c0 -21 16 -50 56 -50c21 0 50 16 50 55c0 22 -16 51 -55 51c-22 0 -51 -16 -51 -56zM60 426c0 74 56 107 99 107c74 0 107 -56 107 -99c0 -75 -56 -107 -99 -107c-74 0 -107 56 -107 99zM216 432c0 22 -16 51 -55 51
c-22 0 -51 -17 -51 -56c0 -21 17 -50 56 -50c21 0 50 16 50 55zM145 11l244 524l46 -21l-245 -525z" />
    <glyph glyph-name="guilsinglleft" unicode="&#x2039;" horiz-adv-x="318" 
d="M185 450l44 -24l-92 -163l92 -162l-44 -25l-105 187z" />
    <glyph glyph-name="guilsinglright" unicode="&#x203a;" horiz-adv-x="319" 
d="M134 450l105 -187l-105 -187l-44 25l92 162l-92 163z" />
    <glyph glyph-name="Euro" unicode="&#x20ac;" horiz-adv-x="639" 
d="M111 262c0 16 0 19 1 23h-82l19 47h70c46 160 186 207 262 207c81 0 142 -23 204 -82c-4 -10 -19 -46 -20 -46c-5 0 -55 79 -175 82h-5c-100 0 -183 -68 -214 -152l-3 -9h364l-19 -47h-355c0 -4 -1 -11 -1 -22c0 -12 1 -19 1 -23h336l-20 -47h-306l3 -9
c42 -112 145 -152 214 -152c119 0 180 82 180 82v-64l-10 -8c-46 -34 -101 -56 -167 -56c-51 0 -172 16 -243 144c-10 18 -18 37 -26 63h-86l19 47h60c-1 4 -1 6 -1 22z" />
    <glyph glyph-name="minus" unicode="&#x2212;" horiz-adv-x="600" 
d="M548 224h-498v50h498v-50z" />
    <glyph glyph-name="dotlessj" unicode="&#xf6be;" horiz-adv-x="378" 
d="M120 -164c40 40 66 97 66 164v524h50v-523v-1c0 -82 -32 -151 -81 -199z" />
    <glyph glyph-name="threequartersemdash" unicode="&#xf6de;" horiz-adv-x="750" 
d="M750 288v-50h-750v50h750z" />
  </font>
</defs>
</svg>
